<svg width="306" height="306" viewBox="0 0 306 306" fill="none" xmlns="http://www.w3.org/2000/svg">
<path d="M275.339 243.876H255.069V244.029H275.339V243.876Z" fill="#EBEBEB"/>
<path d="M202.707 245.541H197.388V245.694H202.707V245.541Z" fill="#EBEBEB"/>
<path d="M254.457 238.197H242.713V238.35H254.457V238.197Z" fill="#EBEBEB"/>
<path d="M58.5378 239.225H32.1055V239.378H58.5378V239.225Z" fill="#EBEBEB"/>
<path d="M67.8647 239.225H63.9907V239.378H67.8647V239.225Z" fill="#EBEBEB"/>
<path d="M137.792 241.807H80.4596V241.96H137.792V241.807Z" fill="#EBEBEB"/>
<path d="M145.044 206.734H26.879C25.9522 206.734 25.0634 206.365 24.408 205.71C23.7527 205.055 23.3845 204.166 23.3845 203.239V37.1238C23.3926 36.2023 23.7643 35.3213 24.4188 34.6726C25.0733 34.0238 25.9575 33.6599 26.879 33.6599H145.044C145.971 33.6599 146.86 34.0281 147.515 34.6834C148.17 35.3388 148.539 36.2276 148.539 37.1544V203.239C148.539 204.166 148.17 205.055 147.515 205.71C146.86 206.365 145.971 206.734 145.044 206.734ZM26.879 33.7823C25.9933 33.7839 25.1443 34.1365 24.518 34.7628C23.8917 35.3891 23.5391 36.2381 23.5375 37.1238V203.239C23.5391 204.125 23.8917 204.974 24.518 205.6C25.1443 206.226 25.9933 206.579 26.879 206.581H145.044C145.93 206.579 146.779 206.226 147.405 205.6C148.031 204.974 148.384 204.125 148.386 203.239V37.1238C148.384 36.2381 148.031 35.3891 147.405 34.7628C146.779 34.1365 145.93 33.7839 145.044 33.7823H26.879Z" fill="#EBEBEB"/>
<path d="M277.426 206.734H159.249C158.322 206.732 157.434 206.363 156.779 205.708C156.124 205.053 155.756 204.165 155.754 203.239V37.1238C155.764 36.2028 156.136 35.3228 156.79 34.6744C157.444 34.026 158.328 33.6615 159.249 33.6599H277.426C278.345 33.6631 279.226 34.0285 279.878 34.6769C280.53 35.3253 280.9 36.2045 280.908 37.1238V203.239C280.908 204.164 280.542 205.051 279.889 205.706C279.236 206.361 278.35 206.73 277.426 206.734ZM159.249 33.7823C158.363 33.7839 157.514 34.1365 156.888 34.7628C156.261 35.3891 155.909 36.2381 155.907 37.1238V203.239C155.909 204.125 156.261 204.974 156.888 205.6C157.514 206.226 158.363 206.579 159.249 206.581H277.426C278.311 206.579 279.16 206.226 279.787 205.6C280.413 204.974 280.766 204.125 280.767 203.239V37.1238C280.766 36.2381 280.413 35.3891 279.787 34.7628C279.16 34.1365 278.311 33.7839 277.426 33.7823H159.249Z" fill="#EBEBEB"/>
<path d="M306 234.029H0V234.182H306V234.029Z" fill="#EBEBEB"/>
<path d="M262.413 86.2002V89.8722C264.722 90.0709 266.909 90.9893 268.668 92.4977L271.281 89.8844C268.82 87.6999 265.698 86.4028 262.413 86.2002Z" fill="#F0F0F0"/>
<path d="M260.626 111.941C258.011 111.729 255.556 110.593 253.701 108.738C251.845 106.883 250.71 104.428 250.498 101.812H246.826C247.036 105.409 248.555 108.805 251.098 111.358C253.641 113.91 257.03 115.444 260.626 115.668V111.941Z" fill="#E6E6E6"/>
<path d="M250.498 100.031C250.711 97.4157 251.846 94.9607 253.701 93.1045C255.557 91.2482 258.011 90.1113 260.626 89.8966V86.2246C257.031 86.4451 253.64 87.9732 251.093 90.521C248.547 93.0688 247.02 96.4602 246.801 100.056L250.498 100.031Z" fill="#EBEBEB"/>
<path d="M272.56 91.145L269.947 93.7583C271.267 95.3083 272.133 97.1926 272.449 99.2034C272.766 101.214 272.521 103.274 271.742 105.154C270.963 107.035 269.68 108.664 268.033 109.861C266.387 111.059 264.442 111.778 262.413 111.941V115.613C265.17 115.444 267.825 114.505 270.074 112.901C272.323 111.297 274.076 109.094 275.134 106.542C276.191 103.991 276.511 101.193 276.056 98.4687C275.601 95.7442 274.39 93.2024 272.56 91.1328V91.145Z" fill="#E0E0E0"/>
<path d="M150.472 94.095H153.19C153.636 94.095 154.064 94.2723 154.38 94.5879C154.695 94.9035 154.873 95.3316 154.873 95.778V174.781H148.783V95.778C148.783 95.5565 148.827 95.3371 148.912 95.1325C148.997 94.9279 149.121 94.7421 149.278 94.5858C149.435 94.4294 149.622 94.3055 149.827 94.2213C150.031 94.1371 150.251 94.0942 150.472 94.095Z" fill="#E6E6E6"/>
<path d="M152.345 94.095H150.668C150.169 94.095 149.691 94.2927 149.338 94.6449C148.984 94.9971 148.785 95.475 148.783 95.9738V174.781H150.46V95.9738C150.462 95.475 150.661 94.9971 151.014 94.6449C151.368 94.2927 151.846 94.095 152.345 94.095Z" fill="#F0F0F0"/>
<path d="M156.641 169.573H147.057V234.182H156.641V169.573Z" fill="#EBEBEB"/>
<path d="M143.649 231.568H160.05C160.67 231.568 161.265 231.815 161.703 232.253C162.142 232.692 162.388 233.286 162.388 233.906V234.175H141.311V233.906C141.311 233.286 141.557 232.692 141.996 232.253C142.434 231.815 143.029 231.568 143.649 231.568Z" fill="#E6E6E6"/>
<path d="M242.609 202.266H258.062C259.394 202.264 260.671 201.734 261.613 200.792C262.555 199.85 263.085 198.573 263.087 197.241V174.646C263.087 174.403 262.99 174.169 262.818 173.997C262.645 173.825 262.412 173.728 262.169 173.728C261.925 173.728 261.692 173.825 261.519 173.997C261.347 174.169 261.251 174.403 261.251 174.646V197.241C261.251 198.087 260.915 198.898 260.317 199.496C259.719 200.094 258.908 200.43 258.062 200.43H242.609V202.266Z" fill="#E0E0E0"/>
<path d="M238.19 223.919V202.878L236.966 202.492C236.289 202.279 235.697 201.856 235.277 201.284C234.857 200.711 234.63 200.02 234.629 199.31H246.287C246.287 200.02 246.06 200.712 245.64 201.284C245.219 201.857 244.627 202.28 243.949 202.492L242.725 202.878V223.919L252.401 228.276V230.112L240.449 225.932L228.496 230.112V228.276L238.19 223.919Z" fill="#E0E0E0"/>
<path d="M225.216 200.43H255.7C256.135 200.43 256.565 200.344 256.967 200.178C257.369 200.012 257.733 199.768 258.041 199.46C258.348 199.153 258.592 198.788 258.759 198.386C258.925 197.984 259.011 197.554 259.011 197.119C259.009 196.242 258.66 195.401 258.039 194.782C257.418 194.162 256.577 193.814 255.7 193.814H225.216C224.34 193.814 223.499 194.162 222.879 194.782C222.259 195.402 221.911 196.243 221.911 197.119C221.91 197.554 221.995 197.984 222.161 198.386C222.327 198.787 222.57 199.152 222.877 199.46C223.184 199.767 223.549 200.011 223.95 200.178C224.351 200.344 224.782 200.43 225.216 200.43Z" fill="#F0F0F0"/>
<path d="M261.067 182.596L262.713 159.071C262.774 158.198 262.486 157.336 261.912 156.676C261.338 156.015 260.526 155.608 259.653 155.546C258.779 155.483 257.916 155.771 257.254 156.345C256.592 156.918 256.185 157.732 256.122 158.606L254.476 182.131C254.415 183.005 254.703 183.867 255.277 184.528C255.85 185.19 256.662 185.598 257.536 185.662C258.41 185.723 259.273 185.434 259.935 184.859C260.597 184.284 261.004 183.471 261.067 182.596Z" fill="#EBEBEB"/>
<path d="M250.308 231.403C250.308 231.817 250.431 232.222 250.661 232.566C250.891 232.91 251.218 233.179 251.6 233.337C251.983 233.495 252.403 233.537 252.809 233.456C253.215 233.375 253.588 233.176 253.881 232.883C254.174 232.591 254.373 232.218 254.454 231.812C254.535 231.406 254.493 230.985 254.335 230.602C254.176 230.22 253.908 229.893 253.564 229.663C253.22 229.433 252.815 229.31 252.401 229.31C252.126 229.31 251.854 229.364 251.6 229.47C251.346 229.575 251.115 229.729 250.921 229.923C250.727 230.118 250.572 230.348 250.467 230.602C250.362 230.856 250.308 231.128 250.308 231.403Z" fill="#E0E0E0"/>
<path d="M226.403 231.403C226.403 231.817 226.526 232.222 226.756 232.566C226.986 232.91 227.313 233.179 227.695 233.337C228.078 233.495 228.499 233.537 228.905 233.456C229.311 233.375 229.684 233.176 229.976 232.883C230.269 232.591 230.468 232.218 230.549 231.812C230.63 231.406 230.588 230.985 230.43 230.602C230.272 230.22 230.003 229.893 229.659 229.663C229.315 229.433 228.91 229.31 228.496 229.31C227.941 229.31 227.409 229.531 227.016 229.923C226.624 230.316 226.403 230.848 226.403 231.403Z" fill="#E0E0E0"/>
<path d="M61.4264 202.266H45.9734C44.6402 202.266 43.3616 201.737 42.4183 200.795C41.4751 199.852 40.9444 198.574 40.9427 197.241V174.646C40.9427 174.403 41.0395 174.169 41.2116 173.997C41.3838 173.825 41.6173 173.728 41.8607 173.728C42.1042 173.728 42.3377 173.825 42.5099 173.997C42.682 174.169 42.7787 174.403 42.7787 174.646V197.241C42.7804 198.088 43.1177 198.899 43.7166 199.496C44.3155 200.094 45.1272 200.43 45.9734 200.43H61.4264V202.266Z" fill="#E0E0E0"/>
<path d="M65.845 223.919V202.878L67.069 202.492C67.7456 202.279 68.3365 201.855 68.7559 201.283C69.1752 200.711 69.4011 200.02 69.4008 199.31H57.7728C57.7738 200.02 58.0009 200.711 58.4213 201.284C58.8417 201.856 59.4334 202.279 60.1106 202.492L61.3346 202.878V223.919L51.6344 228.276V230.112L63.5868 225.932L75.5391 230.112V228.276L65.845 223.919Z" fill="#E0E0E0"/>
<path d="M78.8256 200.43H48.348C47.471 200.428 46.6304 200.079 46.0108 199.458C45.3912 198.837 45.0432 197.996 45.0432 197.119C45.0432 196.243 45.3914 195.402 46.0112 194.782C46.6309 194.162 47.4715 193.814 48.348 193.814H78.8256C79.7027 193.814 80.5439 194.162 81.1646 194.782C81.7854 195.401 82.1349 196.242 82.1365 197.119C82.1365 197.997 81.7877 198.839 81.1668 199.46C80.5459 200.081 79.7037 200.43 78.8256 200.43Z" fill="#F0F0F0"/>
<path d="M42.9624 182.596L41.3162 159.071C41.2556 158.198 41.5437 157.336 42.1173 156.676C42.691 156.015 43.5033 155.608 44.3762 155.546C45.2502 155.483 46.1131 155.771 46.7753 156.345C47.4375 156.918 47.8447 157.732 47.9074 158.606L49.572 182.137C49.6327 183.011 49.3447 183.873 48.7712 184.535C48.1977 185.196 47.3854 185.604 46.512 185.668C46.077 185.701 45.6398 185.647 45.2257 185.51C44.8115 185.373 44.4285 185.156 44.0986 184.87C43.7688 184.585 43.4986 184.237 43.3036 183.846C43.1086 183.456 42.9927 183.031 42.9624 182.596Z" fill="#EBEBEB"/>
<path d="M53.7214 231.403C53.7214 231.818 53.5984 232.222 53.3682 232.567C53.1379 232.911 52.8107 233.179 52.4279 233.338C52.0451 233.496 51.6239 233.537 51.2177 233.456C50.8116 233.374 50.4386 233.175 50.1462 232.881C49.8537 232.588 49.6548 232.214 49.5748 231.808C49.4947 231.402 49.537 230.98 49.6964 230.598C49.8557 230.216 50.1249 229.889 50.4699 229.66C50.8149 229.431 51.2202 229.309 51.6344 229.31C51.909 229.31 52.1809 229.364 52.4345 229.47C52.6881 229.575 52.9184 229.729 53.1123 229.924C53.3061 230.118 53.4597 230.349 53.5643 230.603C53.6688 230.857 53.7222 231.129 53.7214 231.403Z" fill="#E0E0E0"/>
<path d="M77.626 231.403C77.626 231.818 77.5031 232.222 77.2729 232.567C77.0426 232.911 76.7153 233.179 76.3325 233.338C75.9497 233.496 75.5286 233.537 75.1224 233.456C74.7162 233.374 74.3433 233.175 74.0508 232.881C73.7583 232.588 73.5595 232.214 73.4794 231.808C73.3993 231.402 73.4417 230.98 73.601 230.598C73.7604 230.216 74.0296 229.889 74.3746 229.66C74.7196 229.431 75.1249 229.309 75.5391 229.31C75.8137 229.31 76.0856 229.364 76.3391 229.47C76.5927 229.575 76.8231 229.729 77.0169 229.924C77.2108 230.118 77.3644 230.349 77.4689 230.603C77.5734 230.857 77.6268 231.129 77.626 231.403Z" fill="#E0E0E0"/>
<path d="M127.1 234.182H115.166L113.942 211.55H128.324L127.1 234.182Z" fill="#EBEBEB"/>
<path d="M117.92 234.182H113.024V233.172L117.92 232.56V234.182Z" fill="#E0E0E0"/>
<path d="M115.76 209.714H126.507C126.993 209.714 127.46 209.907 127.805 210.252C128.149 210.596 128.343 211.063 128.343 211.55H113.936C113.936 211.063 114.129 210.596 114.474 210.252C114.818 209.907 115.285 209.714 115.772 209.714H115.76Z" fill="#E0E0E0"/>
<path d="M102.62 175.485H83.5135V173.196L102.62 171.972V175.485Z" fill="#E0E0E0"/>
<path d="M130.87 177.816H74.3641V185.638H130.87V177.816Z" fill="#F0F0F0"/>
<path d="M142.584 175.485H62.8524V180.148H142.584V175.485Z" fill="#FAFAFA"/>
<path d="M135.179 234.182H138.777L132.547 180.148H128.324L135.179 234.182Z" fill="#E6E6E6"/>
<path d="M77.112 180.148H72.8892L66.653 234.182H70.2576L77.112 180.148Z" fill="#E6E6E6"/>
<path d="M121.966 174.322C120.334 166.219 118.702 158.112 117.07 150.001C116.837 148.844 115.062 149.334 115.295 150.491L119.952 173.649H109.854C109.611 173.649 109.377 173.745 109.205 173.918C109.033 174.09 108.936 174.323 108.936 174.567C108.936 174.81 109.033 175.044 109.205 175.216C109.377 175.388 109.611 175.485 109.854 175.485H121.072C121.213 175.484 121.353 175.45 121.479 175.387C121.606 175.324 121.716 175.233 121.802 175.121C121.889 175.009 121.948 174.879 121.976 174.74C122.005 174.602 122.001 174.459 121.966 174.322Z" fill="#E0E0E0"/>
<path d="M110.533 167.798L113.679 122.828C114.841 123.657 115.77 124.771 116.378 126.062C116.985 127.354 117.251 128.779 117.149 130.203L115.001 160.956C114.905 162.384 114.444 163.763 113.662 164.961C112.879 166.159 111.802 167.136 110.533 167.798Z" fill="#FAFAFA"/>
<path d="M135.044 162.413H129.928C128.947 162.413 128.153 163.207 128.153 164.187V173.71C128.153 174.69 128.947 175.485 129.928 175.485H135.044C136.024 175.485 136.819 174.69 136.819 173.71V164.187C136.819 163.207 136.024 162.413 135.044 162.413Z" fill="#F5F5F5"/>
<path d="M131.58 157.547C130.227 157.547 129.132 157.884 129.132 158.294C129.132 158.704 130.234 158.147 131.58 158.147C131.753 158.138 131.927 158.138 132.1 158.147V161.109H132.871V158.263C133.569 158.392 134.034 158.532 134.034 158.263C134.028 157.896 132.932 157.547 131.58 157.547Z" fill="#E0E0E0"/>
<path d="M133.869 160.179H131.109V162.939H133.869V160.179Z" fill="#F0F0F0"/>
<path d="M173.165 185.644H229.671V177.823H173.165V185.644Z" fill="#F0F0F0"/>
<path d="M161.452 180.154H241.183V175.491H161.452V180.154Z" fill="#FAFAFA"/>
<path d="M168.857 234.182H165.252L171.482 180.148H175.705L168.857 234.182Z" fill="#E6E6E6"/>
<path d="M226.923 180.148H231.146L237.376 234.182H233.772L226.923 180.148Z" fill="#E6E6E6"/>
<path d="M213.362 175.485H232.462V173.196L213.362 171.972V175.485Z" fill="#263238"/>
<path opacity="0.6" d="M213.362 175.485H232.462V173.196L213.362 171.972V175.485Z" fill="white"/>
<path d="M174.934 134.438V175.485H177.59L178.202 171.843C178.313 171.199 178.649 170.614 179.15 170.193C179.65 169.772 180.284 169.541 180.938 169.542H205.632C206.286 169.541 206.92 169.772 207.42 170.193C207.921 170.614 208.256 171.199 208.368 171.843L208.98 175.485H211.63V134.438H174.934Z" fill="#FAFAFA"/>
<path d="M186.813 174.322C188.445 166.219 190.077 158.112 191.709 150.001C191.942 148.844 193.71 149.334 193.478 150.491L188.814 173.649H198.9C199.144 173.649 199.377 173.745 199.549 173.918C199.721 174.09 199.818 174.323 199.818 174.567C199.818 174.81 199.721 175.044 199.549 175.216C199.377 175.388 199.144 175.485 198.9 175.485H187.694C187.554 175.482 187.416 175.447 187.291 175.383C187.166 175.32 187.057 175.228 186.972 175.117C186.888 175.005 186.829 174.875 186.802 174.738C186.774 174.6 186.778 174.458 186.813 174.322Z" fill="#E0E0E0"/>
<path d="M198.239 167.798L195.093 122.828C193.933 123.659 193.005 124.772 192.397 126.063C191.79 127.354 191.523 128.78 191.623 130.203L193.771 160.956C193.868 162.383 194.33 163.762 195.112 164.96C195.895 166.158 196.971 167.135 198.239 167.798Z" fill="#E0E0E0"/>
<path d="M150.24 45.8081H146.55V65.0739L150.24 65.0616V45.8081Z" fill="#EBEBEB"/>
<path d="M139.359 49.8045V65.0494C139.494 65.074 139.631 65.0863 139.769 65.0861H143.049V49.7861L139.359 49.8045Z" fill="#E6E6E6"/>
<path d="M161.482 43.8069V65.0433H164.775C164.908 65.0407 165.041 65.0285 165.173 65.0066V43.8069H161.482Z" fill="#F0F0F0"/>
<path d="M157.798 53.7334H154.108V65.0554L157.798 65.0493V53.7334Z" fill="#E0E0E0"/>
<path d="M43.9539 86.0654V100.686L49.3762 114.266C52.3915 112.893 54.8574 110.545 56.3777 107.601C57.898 104.657 58.3844 101.287 57.7588 98.0329C57.1331 94.7789 55.4317 91.8298 52.928 89.6593C50.4243 87.4889 47.2636 86.2231 43.9539 86.0654Z" fill="#E0E0E0"/>
<path d="M42.6747 100.503V86.0654C38.9982 86.24 35.5298 87.8228 32.9889 90.4856C30.4479 93.1485 29.0293 96.6872 29.0271 100.368C29.0271 100.547 29.0271 100.725 29.0271 100.9C29.0271 101.084 29.0271 101.261 29.0271 101.445C29.0252 103.729 29.5696 105.98 30.6149 108.01C31.6603 110.04 33.1762 111.791 35.0361 113.116C36.896 114.441 39.0459 115.302 41.3063 115.626C43.5667 115.951 45.872 115.73 48.0297 114.982L42.6747 100.503Z" fill="#F0F0F0"/>
<path d="M150.05 259.311C215.585 259.311 268.711 256.209 268.711 252.383C268.711 248.557 215.585 245.455 150.05 245.455C84.5157 245.455 31.3895 248.557 31.3895 252.383C31.3895 256.209 84.5157 259.311 150.05 259.311Z" fill="#F5F5F5"/>
<path d="M137.504 249.157L148.961 237.701L160.417 249.157C160.713 249.452 161.114 249.617 161.531 249.616C161.843 249.617 162.148 249.525 162.407 249.352C162.666 249.18 162.868 248.934 162.988 248.646C163.107 248.358 163.138 248.041 163.077 247.736C163.016 247.43 162.866 247.15 162.645 246.93L148.961 233.245L135.252 246.93C135.031 247.15 134.881 247.43 134.82 247.736C134.759 248.041 134.79 248.358 134.91 248.646C135.029 248.934 135.231 249.18 135.49 249.352C135.75 249.525 136.054 249.617 136.366 249.616C136.577 249.62 136.786 249.581 136.981 249.502C137.177 249.423 137.355 249.306 137.504 249.157Z" fill="#92E3A9"/>
<path opacity="0.2" d="M149.346 233.637H148.575L145.062 237.144V241.434H145.227L148.961 237.701L152.694 241.434H152.859V237.144L149.346 233.637Z" fill="black"/>
<path d="M146.617 197.902H151.305V247.78C151.305 248.267 151.111 248.734 150.767 249.079C150.423 249.423 149.956 249.616 149.469 249.616H148.453C147.966 249.616 147.499 249.423 147.155 249.079C146.81 248.734 146.617 248.267 146.617 247.78V197.902Z" fill="#92E3A9"/>
<path opacity="0.2" d="M151.305 197.902H146.617V216.281H151.305V197.902Z" fill="black"/>
<path d="M232.401 209.689H65.5206C63.8731 209.686 62.2941 209.03 61.1296 207.864C59.9652 206.699 59.3105 205.119 59.3088 203.472V74.009H238.625V203.472C238.623 205.121 237.967 206.703 236.8 207.869C235.633 209.035 234.05 209.689 232.401 209.689ZM61.408 76.1082V203.472C61.408 204.563 61.8411 205.61 62.6122 206.382C63.3833 207.154 64.4293 207.589 65.5206 207.59H232.401C233.492 207.589 234.538 207.154 235.309 206.382C236.08 205.61 236.513 204.563 236.513 203.472V76.1082H61.408Z" fill="#92E3A9"/>
<g opacity="0.8">
<path d="M232.401 209.689H65.5206C63.8731 209.686 62.2941 209.03 61.1296 207.864C59.9652 206.699 59.3105 205.119 59.3088 203.472V74.009H238.625V203.472C238.623 205.121 237.967 206.703 236.8 207.869C235.633 209.035 234.05 209.689 232.401 209.689ZM61.408 76.1082V203.472C61.408 204.563 61.8411 205.61 62.6122 206.382C63.3833 207.154 64.4293 207.589 65.5206 207.59H232.401C233.492 207.589 234.538 207.154 235.309 206.382C236.08 205.61 236.513 204.563 236.513 203.472V76.1082H61.408Z" fill="white"/>
</g>
<path d="M61.4081 76.1084V203.472C61.4081 204.563 61.8412 205.61 62.6123 206.382C63.3834 207.154 64.4294 207.589 65.5207 207.59H232.401C233.492 207.589 234.538 207.154 235.309 206.382C236.08 205.61 236.514 204.563 236.514 203.472V76.1084H61.4081Z" fill="white"/>
<path d="M242.664 72.6995H55.2574V77.4241H242.664V72.6995Z" fill="#92E3A9"/>
<path opacity="0.5" d="M242.664 72.6995H55.2574V75.0618H242.664V72.6995Z" fill="white"/>
<path d="M78.0544 185.007C78.0544 185.007 182.492 183.061 214.659 92.0447L213.551 185.216L78.0544 185.007Z" fill="#92E3A9"/>
<g opacity="0.7">
<path d="M78.0544 185.007C78.0544 185.007 182.492 183.061 214.659 92.0447L213.551 185.216L78.0544 185.007Z" fill="white"/>
</g>
<path d="M78.8622 185.534C78.6999 185.538 78.5426 185.477 78.425 185.365C78.3074 185.254 78.239 185.1 78.2349 184.937C78.2309 184.775 78.2915 184.618 78.4034 184.5C78.5153 184.382 78.6693 184.314 78.8316 184.31C83.899 184.071 110.601 182.241 139.352 169.708C176.072 153.685 201.115 127.48 213.723 91.8C213.786 91.6604 213.899 91.5496 214.039 91.4893C214.18 91.4291 214.339 91.4238 214.483 91.4745C214.627 91.5252 214.748 91.6283 214.82 91.7633C214.892 91.8983 214.911 92.0556 214.873 92.2039C207.927 111.88 197.021 128.924 182.437 142.896C170.577 154.273 156.237 163.667 139.817 170.828C110.87 183.453 83.9663 185.295 78.8684 185.516L78.8622 185.534Z" fill="#92E3A9"/>
<path d="M84.309 191.262C84.1467 191.262 83.991 191.198 83.8763 191.083C83.7615 190.968 83.697 190.812 83.697 190.65V185.564C83.697 185.402 83.7615 185.246 83.8763 185.132C83.991 185.017 84.1467 184.952 84.309 184.952C84.4713 184.952 84.627 185.017 84.7418 185.132C84.8565 185.246 84.921 185.402 84.921 185.564V190.65C84.921 190.812 84.8565 190.968 84.7418 191.083C84.627 191.198 84.4713 191.262 84.309 191.262Z" fill="#92E3A9"/>
<path d="M105.552 191.287C105.389 191.287 105.234 191.222 105.119 191.108C105.004 190.993 104.94 190.837 104.94 190.675V185.589C104.94 185.427 105.004 185.271 105.119 185.156C105.234 185.042 105.389 184.977 105.552 184.977C105.714 184.977 105.87 185.042 105.984 185.156C106.099 185.271 106.164 185.427 106.164 185.589V190.675C106.164 190.837 106.099 190.993 105.984 191.108C105.87 191.222 105.714 191.287 105.552 191.287Z" fill="#92E3A9"/>
<path d="M126.794 191.305C126.632 191.305 126.476 191.241 126.361 191.126C126.247 191.011 126.182 190.855 126.182 190.693V185.607C126.182 185.445 126.247 185.289 126.361 185.175C126.476 185.06 126.632 184.995 126.794 184.995C126.956 184.995 127.112 185.06 127.227 185.175C127.342 185.289 127.406 185.445 127.406 185.607V190.693C127.406 190.855 127.342 191.011 127.227 191.126C127.112 191.241 126.956 191.305 126.794 191.305Z" fill="#92E3A9"/>
<path d="M148.037 191.323C147.874 191.323 147.719 191.259 147.604 191.144C147.489 191.029 147.425 190.874 147.425 190.711V185.626C147.425 185.463 147.489 185.308 147.604 185.193C147.719 185.078 147.874 185.014 148.037 185.014C148.199 185.014 148.355 185.078 148.469 185.193C148.584 185.308 148.649 185.463 148.649 185.626V190.711C148.649 190.874 148.584 191.029 148.469 191.144C148.355 191.259 148.199 191.323 148.037 191.323Z" fill="#92E3A9"/>
<path d="M169.279 191.342C169.117 191.342 168.961 191.277 168.846 191.162C168.732 191.048 168.667 190.892 168.667 190.73V185.65C168.667 185.488 168.732 185.332 168.846 185.217C168.961 185.103 169.117 185.038 169.279 185.038C169.441 185.038 169.597 185.103 169.712 185.217C169.827 185.332 169.891 185.488 169.891 185.65V190.73C169.891 190.892 169.827 191.048 169.712 191.162C169.597 191.277 169.441 191.342 169.279 191.342Z" fill="#92E3A9"/>
<path d="M190.516 191.366C190.353 191.366 190.198 191.302 190.083 191.187C189.968 191.072 189.904 190.917 189.904 190.754V185.669C189.904 185.506 189.968 185.351 190.083 185.236C190.198 185.121 190.353 185.057 190.516 185.057C190.678 185.057 190.834 185.121 190.948 185.236C191.063 185.351 191.128 185.506 191.128 185.669V190.754C191.128 190.917 191.063 191.072 190.948 191.187C190.834 191.302 190.678 191.366 190.516 191.366Z" fill="#92E3A9"/>
<path d="M211.752 191.385C211.59 191.385 211.434 191.32 211.319 191.205C211.204 191.091 211.14 190.935 211.14 190.773V185.687C211.14 185.525 211.204 185.369 211.319 185.254C211.434 185.139 211.59 185.075 211.752 185.075C211.914 185.075 212.07 185.139 212.185 185.254C212.299 185.369 212.364 185.525 212.364 185.687V190.773C212.364 190.935 212.299 191.091 212.185 191.205C212.07 191.32 211.914 191.385 211.752 191.385Z" fill="#92E3A9"/>
<path d="M78.3359 97.7057H75.5942C75.4319 97.7057 75.2762 97.6412 75.1614 97.5264C75.0467 97.4117 74.9822 97.256 74.9822 97.0937C74.9822 96.9314 75.0467 96.7757 75.1614 96.6609C75.2762 96.5462 75.4319 96.4817 75.5942 96.4817H78.3359C78.4983 96.4817 78.6539 96.5462 78.7687 96.6609C78.8835 96.7757 78.9479 96.9314 78.9479 97.0937C78.9479 97.256 78.8835 97.4117 78.7687 97.5264C78.6539 97.6412 78.4983 97.7057 78.3359 97.7057Z" fill="#92E3A9"/>
<path d="M78.3359 111.029H75.5942C75.4319 111.029 75.2762 110.964 75.1614 110.85C75.0467 110.735 74.9822 110.579 74.9822 110.417C74.9822 110.255 75.0467 110.099 75.1614 109.984C75.2762 109.869 75.4319 109.805 75.5942 109.805H78.3359C78.4983 109.805 78.6539 109.869 78.7687 109.984C78.8835 110.099 78.9479 110.255 78.9479 110.417C78.9479 110.579 78.8835 110.735 78.7687 110.85C78.6539 110.964 78.4983 111.029 78.3359 111.029Z" fill="#92E3A9"/>
<path d="M78.3359 124.358H75.5942C75.4319 124.358 75.2762 124.294 75.1614 124.179C75.0467 124.064 74.9822 123.909 74.9822 123.746C74.9822 123.584 75.0467 123.428 75.1614 123.314C75.2762 123.199 75.4319 123.134 75.5942 123.134H78.3359C78.4983 123.134 78.6539 123.199 78.7687 123.314C78.8835 123.428 78.9479 123.584 78.9479 123.746C78.9479 123.909 78.8835 124.064 78.7687 124.179C78.6539 124.294 78.4983 124.358 78.3359 124.358Z" fill="#92E3A9"/>
<path d="M78.3359 137.7H75.5942C75.4319 137.7 75.2762 137.636 75.1614 137.521C75.0467 137.406 74.9822 137.25 74.9822 137.088C74.9822 136.926 75.0467 136.77 75.1614 136.655C75.2762 136.541 75.4319 136.476 75.5942 136.476H78.3359C78.4983 136.476 78.6539 136.541 78.7687 136.655C78.8835 136.77 78.9479 136.926 78.9479 137.088C78.9479 137.25 78.8835 137.406 78.7687 137.521C78.6539 137.636 78.4983 137.7 78.3359 137.7Z" fill="#92E3A9"/>
<path d="M78.3359 151.011H75.5942C75.4319 151.011 75.2762 150.947 75.1614 150.832C75.0467 150.717 74.9822 150.561 74.9822 150.399C74.9822 150.237 75.0467 150.081 75.1614 149.966C75.2762 149.852 75.4319 149.787 75.5942 149.787H78.3359C78.4983 149.787 78.6539 149.852 78.7687 149.966C78.8835 150.081 78.9479 150.237 78.9479 150.399C78.9479 150.561 78.8835 150.717 78.7687 150.832C78.6539 150.947 78.4983 151.011 78.3359 151.011Z" fill="#92E3A9"/>
<path d="M78.3359 164.34H75.5942C75.4319 164.34 75.2762 164.276 75.1614 164.161C75.0467 164.046 74.9822 163.891 74.9822 163.728C74.9822 163.566 75.0467 163.41 75.1614 163.296C75.2762 163.181 75.4319 163.116 75.5942 163.116H78.3359C78.4983 163.116 78.6539 163.181 78.7687 163.296C78.8835 163.41 78.9479 163.566 78.9479 163.728C78.9479 163.891 78.8835 164.046 78.7687 164.161C78.6539 164.276 78.4983 164.34 78.3359 164.34Z" fill="#92E3A9"/>
<path d="M78.3359 177.663H75.5942C75.4319 177.663 75.2762 177.599 75.1614 177.484C75.0467 177.369 74.9822 177.214 74.9822 177.051C74.9822 176.889 75.0467 176.733 75.1614 176.619C75.2762 176.504 75.4319 176.439 75.5942 176.439H78.3359C78.4983 176.439 78.6539 176.504 78.7687 176.619C78.8835 176.733 78.9479 176.889 78.9479 177.051C78.9479 177.214 78.8835 177.369 78.7687 177.484C78.6539 177.599 78.4983 177.663 78.3359 177.663Z" fill="#92E3A9"/>
<path d="M218.729 186.176H78.8622C78.6999 186.176 78.5443 186.112 78.4295 185.997C78.3147 185.882 78.2502 185.727 78.2502 185.564V91.8305C78.2502 91.6682 78.3147 91.5125 78.4295 91.3978C78.5443 91.283 78.6999 91.2185 78.8622 91.2185C79.0246 91.2185 79.1802 91.283 79.295 91.3978C79.4098 91.5125 79.4742 91.6682 79.4742 91.8305V184.952H218.729C218.891 184.952 219.047 185.017 219.161 185.132C219.276 185.246 219.341 185.402 219.341 185.564C219.341 185.727 219.276 185.882 219.161 185.997C219.047 186.112 218.891 186.176 218.729 186.176Z" fill="#92E3A9"/>
<path d="M116.28 94.1929V95.7535L111.384 106.739H108.936L113.648 96.1635H108.716V98.2994H106.549V94.1929H116.28Z" fill="#92E3A9"/>
<path d="M117.382 100.466C117.382 96.341 119.64 94.0093 122.62 94.0093C125.601 94.0093 127.871 96.341 127.871 100.466C127.871 104.591 125.613 106.916 122.62 106.916C119.628 106.916 117.382 104.591 117.382 100.466ZM125.521 100.466C125.521 97.4365 124.34 96.035 122.62 96.035C120.901 96.035 119.732 97.4365 119.732 100.466C119.732 103.495 120.913 104.891 122.62 104.891C124.328 104.891 125.521 103.495 125.521 100.466Z" fill="#92E3A9"/>
<path d="M129.254 97.51C129.254 95.4476 130.478 94.0645 132.247 94.0645C134.016 94.0645 135.258 95.4292 135.258 97.51C135.258 99.5908 134.034 100.949 132.247 100.949C130.46 100.949 129.254 99.5725 129.254 97.51ZM133.789 97.51C133.789 96.1085 133.214 95.3191 132.247 95.3191C131.28 95.3191 130.705 96.1269 130.705 97.51C130.705 98.8931 131.317 99.6949 132.247 99.6949C133.177 99.6949 133.789 98.9054 133.789 97.51ZM139.775 94.193H141.531L132.963 106.739H131.207L139.775 94.193ZM137.48 103.428C137.48 101.366 138.704 99.9886 140.472 99.9886C142.241 99.9886 143.483 101.366 143.483 103.428C143.483 105.49 142.259 106.874 140.472 106.874C138.685 106.874 137.48 105.484 137.48 103.428ZM142.015 103.428C142.015 102.051 141.403 101.243 140.472 101.243C139.542 101.243 138.924 102.027 138.924 103.428C138.924 104.83 139.536 105.619 140.466 105.619C141.396 105.619 142.015 104.805 142.015 103.428Z" fill="#92E3A9"/>
<path d="M139.677 110.105H111.366V112.076H139.677V110.105Z" fill="#92E3A9"/>
<path d="M139.677 114.848H106.623V116.819H139.677V114.848Z" fill="#92E3A9"/>
<path d="M139.677 119.469H106.623V121.439H139.677V119.469Z" fill="#92E3A9"/>
<path d="M132.376 124.089H106.623V126.06H132.376V124.089Z" fill="#92E3A9"/>
<path d="M243.154 197.633C243.154 197.633 247.609 207.229 247.884 227.866H250.914C250.914 227.866 248.405 196.764 242.64 194.536C239.561 193.392 243.154 197.633 243.154 197.633Z" fill="#92E3A9"/>
<g opacity="0.1">
<path d="M243.154 197.633C243.154 197.633 247.609 207.229 247.884 227.866H250.914C250.914 227.866 248.405 196.764 242.64 194.536C239.561 193.392 243.154 197.633 243.154 197.633Z" fill="black"/>
</g>
<path d="M241.379 194.555C241.991 192.719 242.303 192.749 243.399 191.544C241.771 191.274 239.794 190.448 237.132 191.507C234.794 192.609 233.919 195.179 234.372 197.688C234.391 197.779 234.389 197.874 234.368 197.965C234.347 198.056 234.307 198.141 234.249 198.214C234.184 198.295 234.101 198.359 234.007 198.401C233.912 198.443 233.809 198.462 233.706 198.457C233.602 198.452 233.502 198.422 233.412 198.37C233.323 198.318 233.247 198.246 233.19 198.159C232.68 197.33 232.385 196.385 232.335 195.412C232.285 194.438 232.48 193.468 232.903 192.59C230.816 193.251 228.411 194.34 227.125 196.115C225.718 198.055 226.189 202.627 227.835 204.536C227.904 204.618 227.941 204.721 227.941 204.827C227.941 204.933 227.904 205.036 227.835 205.118C227.797 205.169 227.749 205.212 227.693 205.243C227.638 205.274 227.576 205.293 227.512 205.299C227.449 205.305 227.385 205.297 227.324 205.277C227.264 205.256 227.209 205.223 227.162 205.179C226.331 204.535 225.651 203.716 225.173 202.78C224.671 201.691 224.445 200.405 225.087 199.396C222.431 199.8 220.191 205.418 220.461 205.356C220.834 207.345 222.627 209.157 223.521 209.959C223.674 210.097 223.775 210.284 223.807 210.488C223.838 210.692 223.797 210.901 223.692 211.079C223.626 211.19 223.537 211.285 223.431 211.359C223.325 211.432 223.204 211.482 223.077 211.505C222.949 211.527 222.819 211.522 222.694 211.49C222.569 211.458 222.452 211.399 222.352 211.317C221.397 210.54 219.953 209.218 219.549 208.092C218.668 208.704 218.698 210.204 218.717 211.281C218.766 214.72 221.354 217.211 223.392 219.732C226.032 220.7 228.889 220.912 231.642 220.344C233.643 219.874 235.384 218.649 236.501 216.923V216.88C234.629 216.47 232.56 215.938 230.651 215.503C230.473 215.465 230.317 215.361 230.212 215.213C230.108 215.064 230.063 214.882 230.088 214.702C230.116 214.516 230.216 214.349 230.365 214.234C230.515 214.12 230.702 214.069 230.889 214.09C233.405 214.39 235.357 214.959 237.939 215.228C239.335 214.004 241.575 209.439 241.165 209.561C238.955 209.426 235.204 209.683 233.117 208.765C232.973 208.695 232.862 208.571 232.808 208.42C232.754 208.269 232.762 208.103 232.829 207.957C232.889 207.851 232.979 207.765 233.089 207.711C233.198 207.656 233.32 207.636 233.441 207.651C236.265 208.21 239.164 208.273 242.009 207.835C243.692 205.552 244.904 203.79 245.1 202.088L238.435 201.476C238.294 201.468 238.161 201.408 238.062 201.306C237.963 201.205 237.905 201.071 237.9 200.93C237.895 200.788 237.942 200.65 238.033 200.542C238.124 200.434 238.252 200.363 238.392 200.344H238.429C241.146 200.026 244.335 200.999 246.514 199.451C246.514 199.451 249.396 196.654 248.429 195.02C246.159 196.274 241.128 195.381 241.379 194.555Z" fill="#92E3A9"/>
<path d="M252.664 198.496C250.66 202.049 249.178 205.873 248.264 209.849C245.204 223.625 245.284 227.688 245.284 227.688L242.725 227.774C242.725 227.774 247.707 201.397 251.814 197.688C255.92 193.979 252.664 198.496 252.664 198.496Z" fill="#92E3A9"/>
<path opacity="0.4" d="M252.664 198.496C250.66 202.049 249.178 205.873 248.264 209.849C245.204 223.625 245.284 227.688 245.284 227.688L242.725 227.774C242.725 227.774 247.707 201.397 251.814 197.688C255.92 193.979 252.664 198.496 252.664 198.496Z" fill="black"/>
<path d="M253.619 195.613C252.695 194.885 252.542 195.001 251.563 194.714C252.358 194.102 253.166 193.135 254.947 192.878C255.69 192.826 256.429 193.017 257.054 193.422C257.679 193.827 258.155 194.424 258.411 195.124C258.433 195.175 258.466 195.221 258.507 195.259C258.548 195.297 258.597 195.326 258.65 195.344C258.707 195.367 258.77 195.376 258.832 195.371C258.893 195.366 258.953 195.347 259.007 195.315C259.06 195.283 259.105 195.239 259.139 195.187C259.172 195.135 259.193 195.075 259.2 195.014C259.204 194.443 259.057 193.881 258.773 193.385C258.489 192.889 258.079 192.478 257.585 192.192C258.925 191.917 260.577 191.758 261.869 192.254C263.252 192.804 264.451 195.185 264.17 196.605C264.158 196.665 264.169 196.728 264.2 196.781C264.232 196.835 264.282 196.874 264.341 196.892C264.414 196.921 264.496 196.919 264.568 196.888C264.64 196.858 264.697 196.8 264.727 196.727C264.974 196.176 265.083 195.573 265.045 194.971C265.034 194.624 264.933 194.285 264.751 193.989C264.57 193.693 264.315 193.449 264.011 193.282C265.577 192.719 268.588 194.83 268.417 194.879C268.852 195.968 268.454 197.376 268.221 198.025C268.18 198.142 268.185 198.27 268.235 198.384C268.285 198.497 268.376 198.588 268.491 198.637C268.56 198.674 268.636 198.696 268.715 198.703C268.793 198.709 268.872 198.7 268.947 198.675C269.021 198.649 269.09 198.609 269.148 198.556C269.207 198.503 269.254 198.439 269.286 198.367C269.647 197.623 269.817 196.801 269.782 195.974C270.455 196.023 270.914 196.764 271.251 197.296C272.316 199.004 271.71 200.968 271.41 202.804C270.246 204.063 268.767 204.986 267.126 205.479C265.889 205.822 264.57 205.723 263.399 205.197C264.28 204.457 265.235 203.594 266.134 202.829C266.175 202.796 266.208 202.755 266.232 202.709C266.257 202.662 266.271 202.612 266.275 202.56C266.279 202.508 266.273 202.455 266.256 202.406C266.239 202.356 266.212 202.311 266.177 202.272C266.099 202.191 265.996 202.14 265.884 202.127C265.773 202.113 265.66 202.139 265.565 202.199C264.298 203.074 263.423 203.918 262.107 204.793C260.951 204.591 258.288 203 258.552 202.957C259.708 202.254 261.82 201.299 262.664 200.24C262.693 200.203 262.713 200.161 262.723 200.115C262.734 200.07 262.734 200.023 262.724 199.977C262.714 199.932 262.694 199.889 262.666 199.852C262.638 199.815 262.602 199.784 262.56 199.763C262.493 199.723 262.416 199.705 262.338 199.711C262.261 199.716 262.187 199.745 262.126 199.793C260.747 200.896 259.197 201.765 257.536 202.364C255.896 201.752 254.678 201.207 254.029 200.43L257.438 198.19C257.475 198.168 257.508 198.139 257.534 198.104C257.56 198.069 257.579 198.03 257.59 197.988C257.601 197.946 257.603 197.902 257.597 197.859C257.591 197.816 257.576 197.774 257.554 197.737C257.532 197.7 257.503 197.667 257.468 197.641C257.433 197.615 257.394 197.596 257.352 197.585C257.31 197.574 257.266 197.572 257.223 197.578C257.18 197.584 257.139 197.599 257.101 197.621C255.522 198.233 254.102 199.653 252.432 199.518C252.432 199.518 249.984 198.979 249.984 197.896C251.575 197.841 254.029 195.938 253.619 195.613Z" fill="#92E3A9"/>
<path opacity="0.2" d="M253.619 195.613C252.695 194.885 252.542 195.001 251.563 194.714C252.358 194.102 253.166 193.135 254.947 192.878C255.69 192.826 256.429 193.017 257.054 193.422C257.679 193.827 258.155 194.424 258.411 195.124C258.433 195.175 258.466 195.221 258.507 195.259C258.548 195.297 258.597 195.326 258.65 195.344C258.707 195.367 258.77 195.376 258.832 195.371C258.893 195.366 258.953 195.347 259.007 195.315C259.06 195.283 259.105 195.239 259.139 195.187C259.172 195.135 259.193 195.075 259.2 195.014C259.204 194.443 259.057 193.881 258.773 193.385C258.489 192.889 258.079 192.478 257.585 192.192C258.925 191.917 260.577 191.758 261.869 192.254C263.252 192.804 264.451 195.185 264.17 196.605C264.158 196.665 264.169 196.728 264.2 196.781C264.232 196.835 264.282 196.874 264.341 196.892C264.414 196.921 264.496 196.919 264.568 196.888C264.64 196.858 264.697 196.8 264.727 196.727C264.974 196.176 265.083 195.573 265.045 194.971C265.034 194.624 264.933 194.285 264.751 193.989C264.57 193.693 264.315 193.449 264.011 193.282C265.577 192.719 268.588 194.83 268.417 194.879C268.852 195.968 268.454 197.376 268.221 198.025C268.18 198.142 268.185 198.27 268.235 198.384C268.285 198.497 268.376 198.588 268.491 198.637C268.56 198.674 268.636 198.696 268.715 198.703C268.793 198.709 268.872 198.7 268.947 198.675C269.021 198.649 269.09 198.609 269.148 198.556C269.207 198.503 269.254 198.439 269.286 198.367C269.647 197.623 269.817 196.801 269.782 195.974C270.455 196.023 270.914 196.764 271.251 197.296C272.316 199.004 271.71 200.968 271.41 202.804C270.246 204.063 268.767 204.986 267.126 205.479C265.889 205.822 264.57 205.723 263.399 205.197C264.28 204.457 265.235 203.594 266.134 202.829C266.175 202.796 266.208 202.755 266.232 202.709C266.257 202.662 266.271 202.612 266.275 202.56C266.279 202.508 266.273 202.455 266.256 202.406C266.239 202.356 266.212 202.311 266.177 202.272C266.099 202.191 265.996 202.14 265.884 202.127C265.773 202.113 265.66 202.139 265.565 202.199C264.298 203.074 263.423 203.918 262.107 204.793C260.951 204.591 258.288 203 258.552 202.957C259.708 202.254 261.82 201.299 262.664 200.24C262.693 200.203 262.713 200.161 262.723 200.115C262.734 200.07 262.734 200.023 262.724 199.977C262.714 199.932 262.694 199.889 262.666 199.852C262.638 199.815 262.602 199.784 262.56 199.763C262.493 199.723 262.416 199.705 262.338 199.711C262.261 199.716 262.187 199.745 262.126 199.793C260.747 200.896 259.197 201.765 257.536 202.364C255.896 201.752 254.678 201.207 254.029 200.43L257.438 198.19C257.475 198.168 257.508 198.139 257.534 198.104C257.56 198.069 257.579 198.03 257.59 197.988C257.601 197.946 257.603 197.902 257.597 197.859C257.591 197.816 257.576 197.774 257.554 197.737C257.532 197.7 257.503 197.667 257.468 197.641C257.433 197.615 257.394 197.596 257.352 197.585C257.31 197.574 257.266 197.572 257.223 197.578C257.18 197.584 257.139 197.599 257.101 197.621C255.522 198.233 254.102 199.653 252.432 199.518C252.432 199.518 249.984 198.979 249.984 197.896C251.575 197.841 254.029 195.938 253.619 195.613Z" fill="white"/>
<path d="M250.467 203.135C250.467 203.135 245.473 210.412 244.127 217.26C242.78 224.108 242.67 227.052 242.67 227.052L239.641 227.082C239.641 227.082 245.002 206.274 249.61 202.162C254.219 198.049 250.467 203.135 250.467 203.135Z" fill="#92E3A9"/>
<path opacity="0.2" d="M250.467 203.135C250.467 203.135 245.473 210.412 244.127 217.26C242.78 224.108 242.67 227.052 242.67 227.052L239.641 227.082C239.641 227.082 245.002 206.274 249.61 202.162C254.219 198.049 250.467 203.135 250.467 203.135Z" fill="black"/>
<path d="M250.663 202.492C250.357 200.913 250.1 200.913 249.335 199.806C250.694 199.763 252.395 199.298 254.47 200.454C256.263 201.611 256.703 203.796 256.055 205.816C256.031 205.889 256.022 205.967 256.031 206.044C256.039 206.121 256.064 206.196 256.104 206.262C256.148 206.335 256.209 206.396 256.282 206.44C256.354 206.484 256.436 206.511 256.521 206.517C256.606 206.524 256.691 206.51 256.769 206.478C256.848 206.445 256.918 206.394 256.973 206.33C257.481 205.707 257.823 204.966 257.97 204.175C258.117 203.385 258.062 202.571 257.811 201.807C259.445 202.578 261.299 203.723 262.156 205.314C263.099 207.058 262.217 210.748 260.663 212.131C260.597 212.188 260.552 212.267 260.538 212.353C260.523 212.439 260.54 212.527 260.583 212.603C260.609 212.648 260.644 212.687 260.685 212.718C260.727 212.749 260.774 212.772 260.825 212.784C260.875 212.796 260.928 212.797 260.979 212.788C261.03 212.779 261.079 212.76 261.122 212.731C261.874 212.294 262.52 211.697 263.013 210.981C263.31 210.593 263.505 210.138 263.582 209.656C263.659 209.175 263.615 208.681 263.454 208.221C265.577 208.833 266.814 213.68 266.593 213.6C266.067 215.185 264.408 216.477 263.582 217.034C263.441 217.13 263.339 217.273 263.292 217.437C263.245 217.601 263.257 217.777 263.325 217.933C263.367 218.031 263.43 218.119 263.509 218.19C263.588 218.262 263.682 218.315 263.783 218.347C263.885 218.379 263.993 218.389 264.098 218.375C264.204 218.362 264.306 218.326 264.396 218.27C265.259 217.737 266.587 216.813 267.04 215.932C267.695 216.544 267.505 217.768 267.377 218.631C266.96 221.44 264.574 223.202 262.634 225.045C260.367 225.548 258.006 225.406 255.816 224.635C254.229 224.035 252.937 222.844 252.211 221.311V221.269C253.79 221.134 255.541 220.932 257.15 220.779C257.301 220.762 257.439 220.691 257.54 220.578C257.641 220.465 257.696 220.318 257.695 220.167C257.695 220.005 257.63 219.849 257.516 219.734C257.401 219.619 257.245 219.555 257.083 219.555C254.99 219.524 253.331 219.781 251.189 219.72C250.179 218.551 248.839 214.585 249.157 214.726C250.993 214.861 254.053 215.479 255.834 214.953C255.896 214.934 255.953 214.903 256.003 214.862C256.052 214.821 256.093 214.771 256.123 214.714C256.153 214.657 256.172 214.595 256.178 214.531C256.184 214.467 256.178 214.402 256.159 214.341C256.124 214.243 256.059 214.159 255.973 214.102C255.887 214.044 255.785 214.017 255.681 214.022C253.308 214.172 250.927 213.909 248.643 213.245C247.511 211.195 246.709 209.622 246.734 208.202L252.242 208.404C252.354 208.405 252.463 208.366 252.548 208.294C252.634 208.221 252.691 208.121 252.71 208.011C252.728 207.9 252.707 207.786 252.649 207.69C252.591 207.594 252.501 207.522 252.395 207.486C250.204 206.923 247.499 207.382 245.877 205.871C245.877 205.871 243.815 203.276 244.788 202.04C246.563 203.38 250.804 203.184 250.663 202.492Z" fill="#92E3A9"/>
<path opacity="0.1" d="M250.663 202.492C250.357 200.913 250.1 200.913 249.335 199.806C250.694 199.763 252.395 199.298 254.47 200.454C256.263 201.611 256.703 203.796 256.055 205.816C256.031 205.889 256.022 205.967 256.031 206.044C256.039 206.121 256.064 206.196 256.104 206.262C256.148 206.335 256.209 206.396 256.282 206.44C256.354 206.484 256.436 206.511 256.521 206.517C256.606 206.524 256.691 206.51 256.769 206.478C256.848 206.445 256.918 206.394 256.973 206.33C257.481 205.707 257.823 204.966 257.97 204.175C258.117 203.385 258.062 202.571 257.811 201.807C259.445 202.578 261.299 203.723 262.156 205.314C263.099 207.058 262.217 210.748 260.663 212.131C260.597 212.188 260.552 212.267 260.538 212.353C260.523 212.439 260.54 212.527 260.583 212.603C260.609 212.648 260.644 212.687 260.685 212.718C260.727 212.749 260.774 212.772 260.825 212.784C260.875 212.796 260.928 212.797 260.979 212.788C261.03 212.779 261.079 212.76 261.122 212.731C261.874 212.294 262.52 211.697 263.013 210.981C263.31 210.593 263.505 210.138 263.582 209.656C263.659 209.175 263.615 208.681 263.454 208.221C265.577 208.833 266.814 213.68 266.593 213.6C266.067 215.185 264.408 216.477 263.582 217.034C263.441 217.13 263.339 217.273 263.292 217.437C263.245 217.601 263.257 217.777 263.325 217.933C263.367 218.031 263.43 218.119 263.509 218.19C263.588 218.262 263.682 218.315 263.783 218.347C263.885 218.379 263.993 218.389 264.098 218.375C264.204 218.362 264.306 218.326 264.396 218.27C265.259 217.737 266.587 216.813 267.04 215.932C267.695 216.544 267.505 217.768 267.377 218.631C266.96 221.44 264.574 223.202 262.634 225.045C260.367 225.548 258.006 225.406 255.816 224.635C254.229 224.035 252.937 222.844 252.211 221.311V221.269C253.79 221.134 255.541 220.932 257.15 220.779C257.301 220.762 257.439 220.691 257.54 220.578C257.641 220.465 257.696 220.318 257.695 220.167C257.695 220.005 257.63 219.849 257.516 219.734C257.401 219.619 257.245 219.555 257.083 219.555C254.99 219.524 253.331 219.781 251.189 219.72C250.179 218.551 248.839 214.585 249.157 214.726C250.993 214.861 254.053 215.479 255.834 214.953C255.896 214.934 255.953 214.903 256.003 214.862C256.052 214.821 256.093 214.771 256.123 214.714C256.153 214.657 256.172 214.595 256.178 214.531C256.184 214.467 256.178 214.402 256.159 214.341C256.124 214.243 256.059 214.159 255.973 214.102C255.887 214.044 255.785 214.017 255.681 214.022C253.308 214.172 250.927 213.909 248.643 213.245C247.511 211.195 246.709 209.622 246.734 208.202L252.242 208.404C252.354 208.405 252.463 208.366 252.548 208.294C252.634 208.221 252.691 208.121 252.71 208.011C252.728 207.9 252.707 207.786 252.649 207.69C252.591 207.594 252.501 207.522 252.395 207.486C250.204 206.923 247.499 207.382 245.877 205.871C245.877 205.871 243.815 203.276 244.788 202.04C246.563 203.38 250.804 203.184 250.663 202.492Z" fill="black"/>
<path d="M240.614 249.696H251.116C252.923 249.695 254.676 249.079 256.087 247.949C257.497 246.818 258.481 245.242 258.876 243.478L262.836 225.773H228.888L232.848 243.478C233.243 245.243 234.227 246.82 235.639 247.95C237.051 249.081 238.805 249.696 240.614 249.696Z" fill="#92E3A9"/>
<g opacity="0.3">
<path d="M240.614 249.696H251.116C252.923 249.695 254.676 249.079 256.087 247.949C257.497 246.818 258.481 245.242 258.876 243.478L262.836 225.773H228.888L232.848 243.478C233.243 245.243 234.227 246.82 235.639 247.95C237.051 249.081 238.805 249.696 240.614 249.696Z" fill="black"/>
</g>
<path opacity="0.1" d="M241.379 194.555C241.991 192.719 242.303 192.749 243.399 191.544C241.771 191.274 239.794 190.448 237.132 191.507C234.794 192.609 233.919 195.179 234.372 197.688C234.391 197.779 234.389 197.874 234.368 197.965C234.347 198.056 234.307 198.141 234.249 198.214C234.184 198.295 234.101 198.359 234.007 198.401C233.912 198.443 233.809 198.462 233.706 198.457C233.602 198.452 233.502 198.422 233.412 198.37C233.323 198.318 233.247 198.246 233.19 198.159C232.68 197.33 232.385 196.385 232.335 195.412C232.285 194.438 232.48 193.468 232.903 192.59C230.816 193.251 228.411 194.34 227.125 196.115C225.718 198.055 226.189 202.627 227.835 204.536C227.904 204.618 227.941 204.721 227.941 204.827C227.941 204.933 227.904 205.036 227.835 205.118C227.797 205.169 227.749 205.212 227.693 205.243C227.638 205.274 227.576 205.293 227.512 205.299C227.449 205.305 227.385 205.297 227.324 205.277C227.264 205.256 227.209 205.223 227.162 205.179C226.331 204.535 225.651 203.716 225.173 202.78C224.671 201.691 224.445 200.405 225.087 199.396C222.431 199.8 220.191 205.418 220.461 205.356C220.834 207.345 222.627 209.157 223.521 209.959C223.674 210.097 223.775 210.284 223.807 210.488C223.838 210.692 223.797 210.901 223.692 211.079C223.626 211.19 223.537 211.285 223.431 211.359C223.325 211.432 223.204 211.482 223.077 211.505C222.949 211.527 222.819 211.522 222.694 211.49C222.569 211.458 222.452 211.399 222.352 211.317C221.397 210.54 219.953 209.218 219.549 208.092C218.668 208.704 218.698 210.204 218.717 211.281C218.766 214.72 221.354 217.211 223.392 219.732C226.032 220.7 228.889 220.912 231.642 220.344C233.643 219.874 235.384 218.649 236.501 216.923V216.88C234.629 216.47 232.56 215.938 230.651 215.503C230.473 215.465 230.317 215.361 230.212 215.213C230.108 215.064 230.063 214.882 230.088 214.702C230.116 214.516 230.216 214.349 230.365 214.234C230.515 214.12 230.702 214.069 230.889 214.09C233.405 214.39 235.357 214.959 237.939 215.228C239.335 214.004 241.575 209.439 241.165 209.561C238.955 209.426 235.204 209.683 233.117 208.765C232.973 208.695 232.862 208.571 232.808 208.42C232.754 208.269 232.762 208.103 232.829 207.957C232.889 207.851 232.979 207.765 233.089 207.711C233.198 207.656 233.32 207.636 233.441 207.651C236.265 208.21 239.164 208.273 242.009 207.835C243.692 205.552 244.904 203.79 245.1 202.088L238.435 201.476C238.294 201.468 238.161 201.408 238.062 201.306C237.963 201.205 237.905 201.071 237.9 200.93C237.895 200.788 237.942 200.65 238.033 200.542C238.124 200.434 238.252 200.363 238.392 200.344H238.429C241.146 200.026 244.335 200.999 246.514 199.451C246.514 199.451 249.396 196.654 248.429 195.02C246.159 196.274 241.128 195.381 241.379 194.555Z" fill="white"/>
<path d="M222.866 139.873C222.554 140.105 222.327 140.277 222.052 140.485C221.776 140.693 221.532 140.846 221.269 141.023C220.742 141.372 220.204 141.696 219.659 142.021C218.557 142.668 217.419 143.253 216.25 143.771C215.03 144.317 213.767 144.761 212.474 145.099C211.782 145.284 211.079 145.423 210.369 145.515C210.008 145.558 209.628 145.577 209.243 145.607H208.631H208.251L207.847 145.577C206.91 145.464 206.003 145.176 205.173 144.726C204.497 144.365 203.859 143.936 203.27 143.447C202.241 142.582 201.305 141.612 200.479 140.552C198.943 138.579 197.65 136.427 196.629 134.144L199.451 132.388C200.922 134.05 202.485 135.63 204.133 137.119C204.88 137.801 205.687 138.416 206.544 138.955C206.889 139.17 207.257 139.348 207.639 139.487C207.859 139.575 208.095 139.614 208.331 139.603H208.392L208.68 139.561C208.882 139.524 209.084 139.487 209.292 139.426C209.714 139.322 210.155 139.187 210.601 139.034C211.549 138.682 212.475 138.273 213.374 137.81C214.304 137.327 215.24 136.813 216.158 136.25C216.605 135.993 217.07 135.68 217.529 135.393L218.202 134.952L220.038 133.728L222.866 139.873Z" fill="#92E3A9"/>
<path opacity="0.2" d="M222.866 139.873C222.554 140.105 222.327 140.277 222.052 140.485C221.776 140.693 221.532 140.846 221.269 141.023C220.742 141.372 220.204 141.696 219.659 142.021C218.557 142.668 217.419 143.253 216.25 143.771C215.03 144.317 213.767 144.761 212.474 145.099C211.782 145.284 211.079 145.423 210.369 145.515C210.008 145.558 209.628 145.577 209.243 145.607H208.631H208.251L207.847 145.577C206.91 145.464 206.003 145.176 205.173 144.726C204.497 144.365 203.859 143.936 203.27 143.447C202.241 142.582 201.305 141.612 200.479 140.552C198.943 138.579 197.65 136.427 196.629 134.144L199.451 132.388C200.922 134.05 202.485 135.63 204.133 137.119C204.88 137.801 205.687 138.416 206.544 138.955C206.889 139.17 207.257 139.348 207.639 139.487C207.859 139.575 208.095 139.614 208.331 139.603H208.392L208.68 139.561C208.882 139.524 209.084 139.487 209.292 139.426C209.714 139.322 210.155 139.187 210.601 139.034C211.549 138.682 212.475 138.273 213.374 137.81C214.304 137.327 215.24 136.813 216.158 136.25C216.605 135.993 217.07 135.68 217.529 135.393L218.202 134.952L220.038 133.728L222.866 139.873Z" fill="black"/>
<path d="M197.908 134.383L195.265 133.116L197.394 129.83C197.394 129.83 199.628 131.666 199.842 133.545L197.908 134.383Z" fill="#FF8B7B"/>
<path d="M192.401 130.98L194.188 128.948L197.401 129.836L195.265 133.116L192.401 130.98Z" fill="#FF8B7B"/>
<path d="M248.239 250.969C248.522 250.294 248.919 249.672 249.414 249.133C249.414 249.133 251.403 245.712 249.867 239.769L252.603 237.364C253.349 237.37 254.064 237.664 254.598 238.184C254.947 238.568 255.266 238.977 255.553 239.408C256.556 241.128 258.754 245.075 258.754 245.075L258.343 245.302C257.621 244.133 256.833 243.008 255.981 241.93C255.082 240.92 255.1 242.719 255.43 244.243C255.761 245.767 254.782 248.178 252.175 249.751C249.157 251.636 247.817 252.23 248.239 250.969Z" fill="#263238"/>
<path d="M253.252 242.83C253.252 243.839 253.931 245.62 253.031 246.948C252.631 247.562 252.099 248.078 251.473 248.458C250.847 248.838 250.143 249.073 249.414 249.145C249.414 249.145 250.969 246.483 250.271 241.771C250.17 241.101 250.035 240.438 249.867 239.782C249.867 239.782 252.242 238.025 253.331 237.781L253.907 239.347C253.812 240.386 253.607 241.412 253.295 242.407C253.253 242.544 253.238 242.687 253.252 242.83Z" fill="#FF8B7B"/>
<path d="M253.906 239.347C253.812 240.386 253.607 241.412 253.294 242.407C253.247 242.542 253.226 242.686 253.233 242.829L250.993 243.778L250.253 241.771L247.621 234.616L251.544 232.952L253.313 237.78L253.906 239.347Z" fill="#FF8B7B"/>
<path opacity="0.2" d="M251.563 232.958L247.64 234.617L248.98 238.252H249.029C249.753 238.286 250.477 238.164 251.15 237.895C251.824 237.626 252.432 237.215 252.933 236.691L251.563 232.958Z" fill="black"/>
<path d="M218.362 248.729C218.962 248.334 219.624 248.041 220.32 247.86C220.32 247.86 223.839 246.055 225.742 240.216L229.414 239.476C229.735 239.633 230.021 239.854 230.253 240.125C230.486 240.397 230.661 240.713 230.767 241.055C230.797 241.695 230.785 242.337 230.73 242.976C230.669 244.977 230.338 250.161 230.338 250.161H229.867C229.901 248.568 229.852 246.975 229.72 245.388C229.506 244.053 228.551 245.571 228.007 247.04C227.462 248.509 225.344 249.996 222.291 249.929C218.747 249.776 217.309 249.549 218.362 248.729Z" fill="#263238"/>
<path d="M228.845 242.352C228.431 243.072 227.895 243.714 227.26 244.249C226.526 244.806 226.281 247.187 224.567 247.921C223.899 248.227 223.171 248.381 222.437 248.37C221.702 248.359 220.979 248.185 220.32 247.86C220.32 247.86 222.97 246.501 224.922 242.315C225.369 241.346 225.498 240.26 225.289 239.213L223.992 232.413L228.447 231.832L229.573 239.947C229.65 240.813 229.389 241.674 228.845 242.352Z" fill="#FF8B7B"/>
<path opacity="0.2" d="M223.613 229.837L224.641 235.81L225.026 235.902C225.688 236.052 226.375 236.059 227.04 235.921C227.705 235.784 228.333 235.506 228.882 235.106L228.123 229.323L223.613 229.837Z" fill="black"/>
<path d="M238.472 136.66C238.469 136.49 238.457 136.32 238.435 136.152C238.355 135.426 238.131 134.723 237.778 134.083C237.425 133.444 236.949 132.88 236.377 132.425C235.806 131.97 235.15 131.633 234.448 131.432C233.745 131.231 233.01 131.171 232.284 131.256H232.187C231.813 131.299 231.428 131.354 231.048 131.409C228.458 131.749 225.896 132.272 223.38 132.975C222.951 133.092 222.511 133.233 222.082 133.373C221.501 133.569 220.92 133.771 220.369 133.985C219.11 134.448 218.06 135.35 217.414 136.525C216.767 137.7 216.567 139.07 216.85 140.381C217.716 145.16 219.261 149.791 221.44 154.132C222.162 155.564 222.272 158.465 222.884 160.252L239.751 156.837V156.868C238.955 151.556 238.613 142.541 238.472 136.66Z" fill="#263238"/>
<path d="M222.896 160.216C222.896 160.216 221.96 181.758 221.122 198.294C220.461 211.446 223.025 233.913 223.025 233.913C225.353 234.506 227.82 234.163 229.898 232.958C229.996 234.017 230.914 212.272 229.898 199.751C234.635 181.434 241.581 164.12 236.452 157.376L222.896 160.216Z" fill="#263238"/>
<path opacity="0.3" d="M230.92 172.86L237.878 168.912C236.936 175.442 234.384 183.649 231.905 192.407C229.971 185.436 229.072 178.172 230.92 172.86Z" fill="black"/>
<path d="M225.92 160.742C225.92 160.742 230.534 177.431 233.509 193.423C234.8 204.916 247.168 236.336 247.168 236.336L249.298 235.932C250.309 235.737 251.245 235.264 252.003 234.568L252.719 233.913C252.719 233.913 249.047 211.14 245.504 202.272C245.589 183.741 245.932 163.771 238.968 157.553L225.92 160.742Z" fill="#263238"/>
<path d="M231.416 131.28C231.416 131.28 229.647 151.005 234.121 176.636C241.465 176.195 245.999 174.157 245.999 174.157C245.999 174.157 244.494 160.258 239.965 153.171C239.188 148.202 239.886 137.602 239.42 133.734C239.336 133.056 239.03 132.425 238.55 131.939C238.069 131.453 237.442 131.14 236.764 131.048C234.978 130.919 233.184 130.997 231.416 131.28Z" fill="#92E3A9"/>
<path opacity="0.1" d="M231.416 131.28C231.416 131.28 229.647 151.005 234.121 176.636C241.465 176.195 245.999 174.157 245.999 174.157C245.999 174.157 244.494 160.258 239.965 153.171C239.188 148.202 239.886 137.602 239.42 133.734C239.336 133.056 239.03 132.425 238.55 131.939C238.069 131.453 237.442 131.14 236.764 131.048C234.978 130.919 233.184 130.997 231.416 131.28Z" fill="black"/>
<path d="M223.313 132.706C223.313 132.706 222.352 142.051 228.362 177.119C225.981 178.38 220.895 177.945 220.895 177.945C220.895 177.945 220.981 166.268 221.777 156.941C222.162 152.406 218.876 151.733 217.021 146.721C216.109 140.919 216.66 136.201 217.48 135.534C218.808 134.463 220.987 133 223.313 132.706Z" fill="#92E3A9"/>
<path opacity="0.1" d="M223.313 132.706C223.313 132.706 222.352 142.051 228.362 177.119C225.981 178.38 220.895 177.945 220.895 177.945C220.895 177.945 220.981 166.268 221.777 156.941C222.162 152.406 218.876 151.733 217.021 146.721C216.109 140.919 216.66 136.201 217.48 135.534C218.808 134.463 220.987 133 223.313 132.706Z" fill="black"/>
<path opacity="0.7" d="M231.336 131.225C231.336 131.225 230.993 139.297 231.116 145.203C231.728 141.023 233.209 137.027 233.166 135.705C232.739 135.478 232.33 135.221 231.942 134.934C232.413 134.549 232.926 134.218 233.472 133.948C233.545 132.959 233.559 131.966 233.515 130.974C232.334 131.078 231.336 131.225 231.336 131.225Z" fill="white"/>
<path opacity="0.7" d="M223.38 132.633C223.259 137.303 223.463 141.975 223.992 146.617C222.688 142.89 221.005 139.328 221.158 137.927C221.838 137.357 222.437 136.703 222.437 136.703C222.005 136.433 221.529 136.24 221.03 136.133C221.048 135.091 221.128 134.051 221.269 133.018C222.425 132.804 223.38 132.633 223.38 132.633Z" fill="white"/>
<path d="M237.456 134.102C236.903 135.077 236.748 136.227 237.023 137.314C237.298 138.4 237.981 139.339 238.931 139.934H238.968C240.192 140.687 241.354 141.446 242.493 142.223C243.631 143 244.745 143.808 245.755 144.61C246.229 144.993 246.682 145.402 247.113 145.834C247.286 146 247.449 146.176 247.603 146.36C247.731 146.507 247.793 146.617 247.774 146.544L247.615 145.705C247.676 146.235 247.567 146.771 247.303 147.235C246.923 148.039 246.455 148.798 245.908 149.499C245.309 150.3 244.665 151.066 243.98 151.794C243.301 152.553 242.536 153.312 241.838 154.016L243.643 156.801C244.703 156.311 245.726 155.744 246.703 155.105C247.706 154.462 248.657 153.741 249.549 152.951C250.531 152.099 251.399 151.124 252.132 150.05C252.605 149.337 252.984 148.566 253.258 147.755C253.518 146.979 253.642 146.163 253.625 145.344V145.007L253.478 144.573C253.296 144.039 253.054 143.528 252.756 143.049C252.445 142.555 252.097 142.084 251.716 141.641C251.159 140.992 250.562 140.379 249.929 139.805C248.776 138.746 247.565 137.753 246.299 136.831C245.075 135.919 243.821 135.069 242.56 134.255C241.299 133.441 240.039 132.669 238.68 131.923L237.456 134.102Z" fill="#92E3A9"/>
<path d="M243.949 154.095C242.617 153.641 241.167 153.681 239.861 154.206L241.403 158.875L243.808 156.788L243.949 154.095Z" fill="#FF8B7B"/>
<path d="M241.403 158.875L239.861 154.206L237.493 156.819L239.488 160.044L241.403 158.875Z" fill="#FF8B7B"/>
<path d="M221.097 130.815C220.126 125.059 220.94 119.143 223.429 113.863C226.342 107.743 238.502 112.027 236.666 122.296C235.583 128.349 232.994 127.32 237.566 131.366C240.204 133.691 232.425 134.297 231.783 132.743C231.783 132.743 229.004 133.006 227.076 131.445C227.052 131.445 221.587 133.985 221.097 130.815Z" fill="#263238"/>
<path d="M225.828 136.911C228.478 137.339 230.179 133.949 230.846 132.272H230.546C229.788 130.16 230.326 126.727 230.822 124.695L225.926 128.545C226.226 130.111 226.275 131.739 224.824 132.608C224.53 132.657 224.212 132.718 223.949 132.78C223.625 134.334 223.594 136.556 225.828 136.911Z" fill="#FF8B7B"/>
<path opacity="0.2" d="M228.717 126.274L225.828 128.551C225.926 129.006 225.987 129.469 226.012 129.934C227.076 129.824 228.711 128.942 228.87 127.835C228.911 127.309 228.859 126.781 228.717 126.274Z" fill="black"/>
<path d="M233.423 121.084C231.862 124.94 231.287 126.592 228.625 127.963C224.616 130.007 220.216 127.253 220.589 123.006C220.926 119.181 223.417 113.514 227.792 113.214C228.758 113.148 229.725 113.329 230.601 113.742C231.476 114.154 232.232 114.784 232.796 115.57C233.361 116.357 233.714 117.275 233.824 118.237C233.933 119.198 233.795 120.172 233.423 121.066V121.084Z" fill="#FF8B7B"/>
<path d="M224.237 119.848C223.705 120.486 223.087 121.046 222.401 121.513C222.522 121.687 222.68 121.833 222.864 121.938C223.048 122.044 223.254 122.108 223.466 122.125L224.237 119.848Z" fill="#D85B5B"/>
<path d="M228.276 119.285C228.304 119.294 228.334 119.294 228.362 119.285C228.382 119.277 228.4 119.265 228.415 119.25C228.43 119.235 228.442 119.216 228.45 119.196C228.458 119.176 228.462 119.155 228.462 119.133C228.461 119.112 228.456 119.09 228.447 119.071C228.329 118.785 228.144 118.531 227.908 118.33C227.671 118.13 227.39 117.99 227.089 117.92C227.045 117.913 227 117.923 226.964 117.949C226.928 117.975 226.903 118.014 226.896 118.058C226.889 118.102 226.899 118.147 226.925 118.183C226.951 118.219 226.99 118.243 227.034 118.251C227.282 118.311 227.513 118.43 227.706 118.597C227.9 118.764 228.051 118.975 228.147 119.212C228.162 119.233 228.181 119.251 228.203 119.263C228.225 119.276 228.25 119.284 228.276 119.285Z" fill="#263238"/>
<path d="M222.26 116.892C222.288 116.898 222.318 116.898 222.346 116.892C222.58 116.791 222.834 116.747 223.088 116.763C223.342 116.779 223.589 116.855 223.808 116.984C223.826 116.997 223.846 117.006 223.867 117.011C223.889 117.017 223.911 117.018 223.932 117.014C223.954 117.011 223.975 117.003 223.993 116.992C224.012 116.98 224.028 116.965 224.041 116.947C224.065 116.91 224.074 116.866 224.066 116.822C224.058 116.779 224.034 116.74 223.998 116.715C223.733 116.553 223.433 116.457 223.123 116.435C222.813 116.412 222.503 116.464 222.217 116.586C222.197 116.593 222.178 116.604 222.162 116.618C222.146 116.632 222.133 116.65 222.124 116.669C222.115 116.689 222.11 116.71 222.109 116.731C222.108 116.753 222.112 116.774 222.119 116.794C222.13 116.824 222.149 116.85 222.174 116.869C222.199 116.888 222.229 116.901 222.26 116.904V116.892Z" fill="#263238"/>
<path d="M226.679 120.074C226.575 120.393 226.318 120.595 226.103 120.527C225.889 120.46 225.81 120.142 225.926 119.817C226.042 119.493 226.287 119.297 226.495 119.365C226.703 119.432 226.789 119.75 226.679 120.074Z" fill="#263238"/>
<path d="M223.056 118.863C222.945 119.181 222.688 119.383 222.48 119.315C222.272 119.248 222.187 118.93 222.297 118.612C222.407 118.293 222.658 118.085 222.866 118.159C223.074 118.232 223.166 118.538 223.056 118.863Z" fill="#263238"/>
<path d="M222.952 118.202L222.26 117.724C222.26 117.724 222.456 118.459 222.952 118.202Z" fill="#263238"/>
<path d="M226.581 119.413L225.883 118.936C225.883 118.936 226.079 119.67 226.581 119.413Z" fill="#263238"/>
<path d="M225.859 124.413C226.068 124.356 226.273 124.283 226.471 124.193C226.498 124.18 226.519 124.157 226.531 124.128C226.542 124.1 226.542 124.069 226.532 124.04C226.518 124.013 226.495 123.991 226.467 123.98C226.439 123.969 226.407 123.968 226.379 123.979C225.929 124.19 225.437 124.293 224.94 124.279C224.444 124.265 223.958 124.135 223.521 123.899C223.508 123.89 223.493 123.884 223.478 123.881C223.463 123.878 223.447 123.878 223.432 123.88C223.416 123.883 223.402 123.889 223.389 123.898C223.376 123.906 223.364 123.917 223.355 123.93C223.347 123.943 223.34 123.957 223.337 123.973C223.334 123.988 223.334 124.004 223.337 124.019C223.339 124.034 223.345 124.049 223.354 124.062C223.362 124.075 223.373 124.086 223.386 124.095C224.139 124.514 225.024 124.628 225.859 124.413Z" fill="#263238"/>
<path d="M226.385 114.444C226.385 114.444 225.045 115.552 225.84 116.623C226.636 117.694 229.102 117.235 229.573 119.285C230.045 121.335 229.151 122.92 230.638 123.569C232.125 124.218 233.551 122.186 233.551 122.186C233.551 122.186 235.895 117.412 233.001 114.842C230.106 112.271 226.74 111.372 224.726 112.535C222.713 113.697 221.587 114.536 222.333 115.038C223.08 115.539 224.243 115.901 224.745 115.399C225.188 114.929 225.757 114.597 226.385 114.444Z" fill="#263238"/>
<path d="M233.313 124.505C232.845 125.153 232.142 125.593 231.354 125.729C230.302 125.901 229.892 124.934 230.277 123.997C230.626 123.165 231.593 122.057 232.609 122.308C232.959 122.408 233.255 122.642 233.433 122.96C233.611 123.278 233.656 123.653 233.557 124.003C233.514 124.187 233.431 124.358 233.313 124.505Z" fill="#FF8B7B"/>
<path d="M223.319 132.847C223.686 132.624 224.113 132.517 224.543 132.541C224.543 132.541 223.355 136.311 226.061 136.525C228.766 136.739 230.804 132.112 230.804 132.112C230.989 132.042 231.188 132.015 231.386 132.035C231.583 132.054 231.773 132.118 231.942 132.223C231.942 132.223 229.8 137.584 226.073 137.431C222.346 137.278 223.319 132.847 223.319 132.847Z" fill="#92E3A9"/>
<path opacity="0.7" d="M223.319 132.847C223.686 132.624 224.113 132.517 224.543 132.541C224.543 132.541 223.355 136.311 226.061 136.525C228.766 136.739 230.804 132.112 230.804 132.112C230.989 132.042 231.188 132.015 231.386 132.035C231.583 132.054 231.773 132.118 231.942 132.223C231.942 132.223 229.8 137.584 226.073 137.431C222.346 137.278 223.319 132.847 223.319 132.847Z" fill="white"/>
<path d="M231.085 121.243L228.484 120.233C228.398 119.499 227.468 119.138 227.07 118.979C226.672 118.82 225.663 118.434 225.112 119.009L224.206 118.661C224.206 117.865 223.196 117.473 222.78 117.314C222.364 117.155 221.018 116.629 220.589 117.73C220.459 118.186 220.503 118.674 220.714 119.099C220.924 119.524 221.286 119.855 221.727 120.028C222.169 120.2 222.66 120.201 223.102 120.031C223.545 119.861 223.908 119.531 224.12 119.107C224.143 119.05 224.162 118.99 224.175 118.93L224.953 119.23C224.921 119.282 224.895 119.338 224.873 119.395C224.743 119.851 224.787 120.339 224.998 120.764C225.208 121.189 225.57 121.52 226.011 121.692C226.453 121.864 226.944 121.866 227.386 121.695C227.829 121.525 228.192 121.196 228.404 120.772C228.439 120.688 228.464 120.599 228.478 120.509L230.987 121.488C231.332 121.62 231.62 121.869 231.801 122.192L232.027 122.063C231.817 121.69 231.484 121.4 231.085 121.243ZM221.832 119.762C221.443 119.636 221.119 119.361 220.932 118.998C220.744 118.635 220.706 118.213 220.828 117.822C221.06 117.21 221.617 117.143 222.664 117.559C223.71 117.975 224.09 118.41 223.857 119.009C223.683 119.373 223.375 119.655 222.997 119.795C222.619 119.936 222.201 119.924 221.832 119.762ZM226.116 121.427C225.727 121.302 225.404 121.028 225.216 120.666C225.028 120.304 224.991 119.882 225.112 119.493C225.351 118.881 225.901 118.807 226.948 119.224C227.994 119.64 228.374 120.074 228.141 120.674C227.968 121.039 227.66 121.322 227.281 121.462C226.903 121.603 226.485 121.59 226.116 121.427Z" fill="#263238"/>
<path d="M78.948 125.607C78.948 125.607 73.9969 125.974 71.298 131.647C68.5991 137.32 66.7569 147.975 73.134 148.257C79.511 148.538 78.9357 146.978 78.9357 146.978V144.138L74.8415 142.914C74.6376 142.852 74.4482 142.75 74.2848 142.614C74.1215 142.477 73.9874 142.309 73.8908 142.119C73.7942 141.929 73.737 141.722 73.7226 141.509C73.7082 141.297 73.737 141.083 73.8072 140.882L75.9614 134.762L78.948 125.607Z" fill="#92E3A9"/>
<path opacity="0.2" d="M78.948 125.607C78.948 125.607 73.9969 125.974 71.298 131.647C68.5991 137.32 66.7569 147.975 73.134 148.257C79.511 148.538 78.9357 146.978 78.9357 146.978V144.138L74.8415 142.914C74.6376 142.852 74.4482 142.75 74.2848 142.614C74.1215 142.477 73.9874 142.309 73.8908 142.119C73.7942 141.929 73.737 141.722 73.7226 141.509C73.7082 141.297 73.737 141.083 73.8072 140.882L75.9614 134.762L78.948 125.607Z" fill="black"/>
<path d="M91.8428 110.9C92.0509 110.864 92.2651 111.084 92.3324 111.396C92.3997 111.708 92.2835 112.008 92.0754 112.008C91.8673 112.008 91.6531 111.831 91.5858 111.519C91.5185 111.206 91.6347 110.937 91.8428 110.9Z" fill="#263238"/>
<path d="M92.4427 115.056C92.7143 115.065 92.9846 115.015 93.2351 114.909C93.4855 114.804 93.71 114.645 93.8931 114.444C93.1043 113.743 92.4146 112.938 91.8429 112.051L92.4427 115.056Z" fill="#EC837E"/>
<path d="M90.215 109.995C90.3678 109.812 90.5618 109.669 90.781 109.576C91.0003 109.484 91.2384 109.445 91.4757 109.462C91.4956 109.469 91.517 109.469 91.5369 109.462C91.5872 109.462 91.6355 109.442 91.6711 109.407C91.7066 109.371 91.7266 109.323 91.7266 109.272C91.7275 109.247 91.7231 109.222 91.7139 109.199C91.7047 109.175 91.6907 109.154 91.6729 109.136C91.6552 109.119 91.6339 109.105 91.6105 109.095C91.5871 109.086 91.5621 109.082 91.5369 109.083C91.241 109.047 90.9409 109.085 90.6626 109.191C90.3843 109.298 90.1362 109.471 89.9396 109.695C89.9083 109.73 89.8909 109.776 89.8906 109.823C89.8921 109.874 89.9123 109.922 89.9474 109.958C89.9826 109.994 90.03 110.016 90.0803 110.019C90.1267 110.025 90.1738 110.017 90.215 109.995Z" fill="#263238"/>
<path d="M88.9113 120.686C88.3361 122.957 88.2994 125.772 90.7902 126.543C90.7902 126.543 93.8869 129.138 87.926 129.138C82.5159 129.138 81.7142 126.182 81.7142 126.182C83.7583 124.23 83.4095 120.197 82.8403 117.278L88.9113 120.686Z" fill="#FFC2BC"/>
<path d="M79.5049 125.68C79.5049 125.68 80.4841 123.085 81.8182 122.314C83.1524 121.543 88.7583 122.694 89.6274 123.079C90.4964 123.465 91.292 125.527 91.292 125.527L79.5049 125.68Z" fill="#92E3A9"/>
<path opacity="0.2" d="M79.5049 125.68C79.5049 125.68 80.4841 123.085 81.8182 122.314C83.1524 121.543 88.7583 122.694 89.6274 123.079C90.4964 123.465 91.292 125.527 91.292 125.527L79.5049 125.68Z" fill="black"/>
<path d="M88.0424 245.987C88.0233 245.984 88.0057 245.976 87.9919 245.962C87.978 245.949 87.9688 245.931 87.9654 245.912C87.962 245.894 87.9647 245.874 87.973 245.857C87.9813 245.839 87.9949 245.825 88.0118 245.816C88.0852 245.779 89.4806 244.99 90.1415 245.167C90.2045 245.182 90.2641 245.209 90.3166 245.247C90.3691 245.284 90.4136 245.332 90.4475 245.387C90.4891 245.448 90.5114 245.519 90.5114 245.592C90.5114 245.666 90.4891 245.737 90.4475 245.797C90.2823 246.03 89.8355 246.103 89.2725 246.103C88.86 246.098 88.4486 246.059 88.0424 245.987ZM89.8784 245.32C89.3282 245.386 88.7961 245.559 88.3116 245.828C89.0522 245.932 90.062 245.926 90.2456 245.669C90.2884 245.632 90.3068 245.577 90.2456 245.461C90.2263 245.427 90.1999 245.398 90.1681 245.376C90.1364 245.354 90.1001 245.339 90.062 245.332C90.0014 245.32 89.9389 245.32 89.8784 245.332V245.32Z" fill="#92E3A9"/>
<path d="M88.0056 245.969C87.9818 245.946 87.9666 245.916 87.9628 245.883C87.9897 245.317 88.2051 244.776 88.5748 244.347C88.6476 244.285 88.7324 244.238 88.8239 244.209C88.9155 244.181 89.0119 244.172 89.1072 244.182C89.3704 244.212 89.4622 244.347 89.4622 244.451C89.5356 244.916 88.5809 245.761 88.0974 245.981H88.0607C88.0417 245.981 88.0229 245.977 88.0056 245.969ZM89.0583 244.365C88.9956 244.365 88.9334 244.377 88.8756 244.401C88.8177 244.425 88.7654 244.461 88.7217 244.506C88.4226 244.85 88.2366 245.277 88.1892 245.73C88.6849 245.43 89.3275 244.751 89.2847 244.506C89.2847 244.506 89.2847 244.402 89.1011 244.402H89.046L89.0583 244.365Z" fill="#92E3A9"/>
<path d="M84.0888 236.654H88.073L87.6752 245.883H83.691L84.0888 236.654Z" fill="#FFC2BC"/>
<path d="M88.6114 245.736C91.3042 247.395 92.1366 247.468 95.2516 248.184C95.9371 248.331 95.4842 249.984 93.8502 249.984C91.1451 249.984 90.8636 249.861 88.5564 249.861C86.5796 249.861 84.3152 249.947 82.7424 249.978C82.6957 249.984 82.6483 249.984 82.6016 249.978C82.4531 249.943 82.3245 249.85 82.2442 249.72C82.1639 249.591 82.1383 249.434 82.1732 249.286L82.9566 245.749C82.9744 245.671 83.018 245.601 83.0801 245.551C83.1423 245.501 83.2195 245.474 83.2993 245.473H87.6506C87.989 245.471 88.3215 245.562 88.6114 245.736Z" fill="#263238"/>
<path d="M93.4524 125.619C89.4919 125.325 85.5189 125.233 81.549 125.344C80.5086 125.417 79.4743 125.521 78.4462 125.65C77.9327 125.715 77.4378 125.883 76.991 126.145C76.5443 126.406 76.1549 126.755 75.8463 127.17C75.5376 127.586 75.3161 128.06 75.195 128.563C75.0739 129.066 75.0556 129.588 75.1414 130.099C77.5037 144.261 76.3164 158.153 75.992 160.944L97.2835 160.742C99.5112 143.214 98.9176 134.377 98.0608 130.087C97.8367 128.962 97.2759 127.933 96.4528 127.135C95.6296 126.337 94.5832 125.808 93.4524 125.619Z" fill="#92E3A9"/>
<path opacity="0.1" d="M93.4524 125.619C89.4919 125.325 85.5189 125.233 81.549 125.344C80.5086 125.417 79.4743 125.521 78.4462 125.65C77.9327 125.715 77.4378 125.883 76.991 126.145C76.5443 126.406 76.1549 126.755 75.8463 127.17C75.5376 127.586 75.3161 128.06 75.195 128.563C75.0739 129.066 75.0556 129.588 75.1414 130.099C77.5037 144.261 76.3164 158.153 75.992 160.944L97.2835 160.742C99.5112 143.214 98.9176 134.377 98.0608 130.087C97.8367 128.962 97.2759 127.933 96.4528 127.135C95.6296 126.337 94.5832 125.808 93.4524 125.619Z" fill="black"/>
<path opacity="0.2" d="M84.0827 236.66L83.8807 241.416H87.871L88.0729 236.66H84.0827Z" fill="black"/>
<path d="M80.8391 110.539C81.1103 109.133 81.9284 107.893 83.1137 107.089C84.2991 106.286 85.7547 105.986 87.161 106.255C91.2614 107.026 92.9567 112.657 92.8343 116.304C92.7119 120.35 88.2749 123.091 84.7314 120.705C82.3752 119.113 81.9651 116.831 80.9431 113.012C80.7201 112.206 80.6845 111.361 80.8391 110.539Z" fill="#FFC2BC"/>
<path d="M76.3042 159.469C76.3042 159.469 72.2221 172.547 69.0642 185.858C64.9454 203.184 55.0188 238.68 55.0188 238.68L62.0446 240.228C62.0446 240.228 76.5367 198.955 80.3434 186.513C83.8256 175.154 90.0558 159.481 90.0558 159.481L76.3042 159.469Z" fill="#263238"/>
<path opacity="0.3" d="M84.7864 174.016C78.5196 191.06 77.1915 196.176 77.0997 196.507C77.8586 186.133 80.9798 174.561 84.7864 174.016C85.068 173.973 84.5294 173.936 84.7864 174.016Z" fill="black"/>
<path d="M83.5992 159.469C83.5992 159.469 83.1341 173.967 82.8403 187.498C82.5649 199.916 82.8403 240.498 82.8403 240.498H89.5723C89.5723 240.498 94.7559 199.096 96.1268 186.47C97.4549 174.34 97.5956 159.469 97.5956 159.469H83.5992Z" fill="#263238"/>
<path d="M81.8428 238.111L82.0692 240.608H90.2761C90.2761 240.608 90.6862 237.805 90.6556 237.805L81.8428 238.111Z" fill="#92E3A9"/>
<path d="M54.823 245.944C54.8163 245.962 54.8046 245.976 54.7893 245.987C54.774 245.997 54.7559 246.003 54.7373 246.003C54.7187 246.003 54.7006 245.997 54.6853 245.987C54.67 245.976 54.6583 245.962 54.6516 245.944C54.6149 245.877 53.8315 244.475 54.0396 243.814C54.0713 243.69 54.1503 243.582 54.2599 243.515C54.3212 243.472 54.3937 243.45 54.468 243.45C54.5423 243.45 54.6149 243.472 54.6761 243.515C54.9025 243.686 54.9699 244.157 54.9699 244.69C54.9564 245.111 54.9072 245.531 54.823 245.944ZM54.1743 244.078C54.2302 244.627 54.3946 245.159 54.6577 245.644C54.7679 244.904 54.7679 243.9 54.5109 243.71C54.5109 243.668 54.4252 243.649 54.3028 243.71C54.2684 243.73 54.239 243.758 54.2168 243.791C54.1945 243.823 54.18 243.861 54.1743 243.9C54.162 243.959 54.162 244.019 54.1743 244.078Z" fill="#92E3A9"/>
<path d="M54.8168 245.981C54.8071 245.994 54.7941 246.005 54.779 246.011C54.7639 246.018 54.7474 246.02 54.7312 246.018C54.1674 245.989 53.6292 245.774 53.2012 245.406C53.1399 245.332 53.0942 245.247 53.0668 245.156C53.0395 245.064 53.031 244.968 53.042 244.873C53.042 244.616 53.2012 244.531 53.3113 244.531C53.7642 244.457 54.6149 245.418 54.8291 245.895V245.932C54.83 245.949 54.8257 245.966 54.8168 245.981ZM53.244 244.935C53.251 245.057 53.2983 245.173 53.3786 245.265C53.7224 245.564 54.1497 245.75 54.6026 245.797C54.3089 245.302 53.6357 244.653 53.3786 244.696C53.3786 244.696 53.2746 244.696 53.2746 244.879V244.935H53.244Z" fill="#92E3A9"/>
<path d="M56.561 238.294L60.4472 238.588L58.654 246.22L54.7617 245.944L56.561 238.294Z" fill="#FFC2BC"/>
<path opacity="0.2" d="M56.61 238.08L55.8206 241.44L59.7068 241.715L60.5024 238.349L56.61 238.08Z" fill="black"/>
<path d="M53.856 245.412C52.8095 246.636 52.2526 247.291 49.2109 248.252C48.5377 248.46 49.1375 250.088 50.7715 249.922C53.4643 249.684 51.9955 249.69 54.2722 249.482C56.2367 249.31 58.5011 249.2 60.0678 249.09C60.1207 249.096 60.1741 249.096 60.2269 249.09C60.3681 249.036 60.4843 248.932 60.5532 248.797C60.6221 248.663 60.6389 248.508 60.6002 248.362L59.5048 244.898C59.4812 244.823 59.4325 244.758 59.3667 244.714C59.3009 244.671 59.2221 244.651 59.1437 244.659L54.8107 245.045C54.4566 245.037 54.1136 245.169 53.856 245.412Z" fill="#263238"/>
<path d="M54.1804 237.364L54.1376 239.904L62.5893 240.81C62.5893 240.81 63.3115 238.068 63.2809 238.068L54.1804 237.364Z" fill="#92E3A9"/>
<path d="M82.1549 105.435C84.1745 104.658 84.4744 104.474 85.6555 102.657C86.3104 101.641 86.2186 100.753 88.2076 100.429C89.2679 100.249 90.358 100.444 91.29 100.98C92.2219 101.517 92.9374 102.363 93.313 103.371C93.6886 104.378 93.7008 105.486 93.3475 106.502C92.9942 107.518 92.2976 108.379 91.3777 108.936C90.3373 109.579 91.8796 108.024 90.7657 108.495C89.6519 108.967 89.8844 108.428 89.8171 109.652C89.762 110.588 90.3312 111.433 90.6984 112.302C91.0656 113.171 91.1513 114.34 90.3863 114.891C90.6005 114.175 88.8563 116.115 88.9236 116.874C89.1072 118.942 87.2712 120.839 85.221 121.121C80.7044 121.733 77.7362 116.494 76.4327 112.889C74.664 108.091 77.3874 107.265 82.1549 105.435Z" fill="#263238"/>
<path d="M89.5357 111.335C90.6679 111.678 91.2431 113.361 91.286 114.426C91.3227 115.601 90.5332 116.335 89.5173 115.539C88.7507 114.925 88.2068 114.075 87.9689 113.122C87.7058 111.996 88.4035 110.986 89.5357 111.335Z" fill="#FFC2BC"/>
<path opacity="0.1" d="M93.5075 125.943C94.6734 125.881 95.8283 126.198 96.7992 126.846C97.77 127.495 98.5047 128.441 98.8931 129.542C100.025 132.418 102.277 138.808 103.428 142.1C103.489 142.275 103.599 142.429 103.746 142.542C103.893 142.655 104.07 142.723 104.255 142.737C104.44 142.75 104.625 142.709 104.787 142.619C104.948 142.529 105.08 142.393 105.166 142.229L106.702 139.334C106.702 139.334 108.973 139.762 109.823 141.745C110.674 143.728 105.539 149.138 102.871 149.126C99.8723 149.126 95.98 141.782 94.9151 138.434C93.6244 134.405 93.146 130.159 93.5075 125.943Z" fill="white"/>
<path d="M106.702 140.27L108.459 137.29C108.459 137.29 107.467 135.454 108.116 134.23C108.765 133.006 109.407 133.997 110.038 133.618C110.668 133.238 112.082 130.65 112.761 131.953C113.44 133.257 114.285 135.509 110.784 138.171L108.893 142.92L106.702 140.27Z" fill="#FFC2BC"/>
<path d="M106.965 139.016C107.734 139.18 108.442 139.552 109.013 140.092C109.584 140.632 109.996 141.318 110.203 142.076V142.137C110.252 142.412 110.595 144.45 110.203 144.487C109.811 144.524 109.248 142.571 106.029 140.876C105.983 140.852 105.942 140.818 105.909 140.778C105.875 140.737 105.851 140.691 105.836 140.641C105.821 140.59 105.816 140.538 105.822 140.486C105.828 140.434 105.844 140.383 105.87 140.338L106.561 139.199C106.6 139.13 106.661 139.074 106.733 139.041C106.806 139.008 106.887 138.999 106.965 139.016Z" fill="#92E3A9"/>
<path d="M106.965 139.016C107.734 139.18 108.442 139.552 109.013 140.092C109.584 140.632 109.996 141.318 110.203 142.076V142.137C110.252 142.412 110.595 144.45 110.203 144.487C109.811 144.524 109.248 142.571 106.029 140.876C105.983 140.852 105.942 140.818 105.909 140.778C105.875 140.737 105.851 140.691 105.836 140.641C105.821 140.59 105.816 140.538 105.822 140.486C105.828 140.434 105.844 140.383 105.87 140.338L106.561 139.199C106.6 139.13 106.661 139.074 106.733 139.041C106.806 139.008 106.887 138.999 106.965 139.016Z" fill="#92E3A9"/>
<path d="M93.5075 125.943C94.6734 125.881 95.8283 126.198 96.7992 126.846C97.77 127.495 98.5047 128.441 98.8931 129.542C100.025 132.418 102.277 138.808 103.428 142.1C103.489 142.275 103.599 142.429 103.746 142.542C103.893 142.655 104.07 142.723 104.255 142.737C104.44 142.75 104.625 142.709 104.787 142.619C104.948 142.529 105.08 142.393 105.166 142.229L106.702 139.334C106.702 139.334 108.973 139.762 109.823 141.745C110.674 143.728 105.539 149.138 102.871 149.126C99.8723 149.126 95.98 141.782 94.9151 138.434C93.6244 134.405 93.146 130.159 93.5075 125.943Z" fill="#92E3A9"/>
<path opacity="0.1" d="M93.5075 125.943C94.6734 125.881 95.8283 126.198 96.7992 126.846C97.77 127.495 98.5047 128.441 98.8931 129.542C100.025 132.418 102.277 138.808 103.428 142.1C103.489 142.275 103.599 142.429 103.746 142.542C103.893 142.655 104.07 142.723 104.255 142.737C104.44 142.75 104.625 142.709 104.787 142.619C104.948 142.529 105.08 142.393 105.166 142.229L106.702 139.334C106.702 139.334 108.973 139.762 109.823 141.745C110.674 143.728 105.539 149.138 102.871 149.126C99.8723 149.126 95.98 141.782 94.9151 138.434C93.6244 134.405 93.146 130.159 93.5075 125.943Z" fill="white"/>
</svg>
