<svg width="306" height="306" viewBox="0 0 306 306" fill="none" xmlns="http://www.w3.org/2000/svg">
<path d="M247.101 131.378C238.184 154.395 217.352 171.856 195.693 180.167C178.894 186.611 161.011 185.975 143.19 180.436C126.28 175.185 110.754 166.66 93.385 170.503C79.7619 173.52 64.4007 177.847 52.0873 165.405C45.9367 159.2 41.8546 150.778 39.1618 142.149C30.5938 114.787 34.8778 85.8453 53.2378 67.8831C68.9112 52.5096 91.341 45.0922 112.975 46.4019C117.132 46.6481 121.259 47.2625 125.307 48.2379C135.992 50.8389 147.657 54.9087 158.63 53.4337C171.55 51.6957 180.522 41.8669 192.29 37.3565C204.451 32.7053 217.064 38.2011 226.752 48.6846C247.04 70.6248 257.842 103.648 247.101 131.378Z" fill="#92E3A9"/>
<path opacity="0.7" d="M247.101 131.378C238.184 154.395 217.352 171.856 195.693 180.167C178.894 186.611 161.011 185.975 143.19 180.436C126.28 175.185 110.754 166.66 93.385 170.503C79.7619 173.52 64.4007 177.847 52.0873 165.405C45.9367 159.2 41.8546 150.778 39.1618 142.149C30.5938 114.787 34.8778 85.8453 53.2378 67.8831C68.9112 52.5096 91.341 45.0922 112.975 46.4019C117.132 46.6481 121.259 47.2625 125.307 48.2379C135.992 50.8389 147.657 54.9087 158.63 53.4337C171.55 51.6957 180.522 41.8669 192.29 37.3565C204.451 32.7053 217.064 38.2011 226.752 48.6846C247.04 70.6248 257.842 103.648 247.101 131.378Z" fill="white"/>
<path d="M93.636 73.1158H47.6931L48.1582 68.844H94.1011L93.636 73.1158Z" fill="white"/>
<path d="M93.636 79.095H47.6931L48.1582 74.8232H94.1011L93.636 79.095Z" fill="white"/>
<path d="M93.636 85.0681H47.6931L48.1582 80.8025H94.1011L93.636 85.0681Z" fill="white"/>
<path d="M93.636 91.0472H47.6931L48.1582 86.7754H94.1011L93.636 91.0472Z" fill="white"/>
<path d="M93.636 97.0264H47.6931L48.1582 92.7546H94.1011L93.636 97.0264Z" fill="white"/>
<path d="M93.636 103H47.6931L48.1582 98.7339H94.1011L93.636 103Z" fill="white"/>
<path d="M93.636 108.979H47.6931L48.1582 104.707H94.1011L93.636 108.979Z" fill="white"/>
<path d="M93.636 114.958H47.6931L48.1582 110.686H94.1011L93.636 114.958Z" fill="white"/>
<path d="M93.636 120.931H47.6931L48.1582 116.666H94.1011L93.636 120.931Z" fill="white"/>
<path d="M93.636 126.91H47.6931L48.1582 122.645H94.1011L93.636 126.91Z" fill="white"/>
<path d="M93.636 132.89H47.6931L48.1582 128.618H94.1011L93.636 132.89Z" fill="white"/>
<path d="M142.21 73.1158H96.2676L96.7327 68.844H142.676L142.21 73.1158Z" fill="white"/>
<path d="M142.21 79.095H96.2676L96.7327 74.8232H142.676L142.21 79.095Z" fill="white"/>
<path d="M142.21 85.0681H96.2676L96.7327 80.8025H142.676L142.21 85.0681Z" fill="white"/>
<path d="M142.21 91.0472H96.2676L96.7327 86.7754H142.676L142.21 91.0472Z" fill="white"/>
<path d="M142.21 97.0264H96.2676L96.7327 92.7546H142.676L142.21 97.0264Z" fill="white"/>
<path d="M142.21 103H96.2676L96.7327 98.7339H142.676L142.21 103Z" fill="white"/>
<path d="M142.21 108.979H96.2676L96.7327 104.707H142.676L142.21 108.979Z" fill="white"/>
<path d="M142.21 114.958H96.2676L96.7327 110.686H142.676L142.21 114.958Z" fill="white"/>
<path d="M142.21 120.931H96.2676L96.7327 116.666H142.676L142.21 120.931Z" fill="white"/>
<path d="M142.21 126.91H96.2676L96.7327 122.645H142.676L142.21 126.91Z" fill="white"/>
<path d="M142.21 132.89H96.2676L96.7327 128.618H142.676L142.21 132.89Z" fill="white"/>
<path d="M229.475 59.5171H148.306V260.522H229.475V59.5171Z" fill="white" stroke="#263238" stroke-linecap="round" stroke-linejoin="round"/>
<path d="M256.146 59.5171H217.131V260.522H256.146V59.5171Z" fill="#263238" stroke="#263238" stroke-linecap="round" stroke-linejoin="round"/>
<path d="M215.045 63.4399H195.522V90.2884H215.045V63.4399Z" fill="white" stroke="#263238" stroke-linecap="round" stroke-linejoin="round"/>
<path d="M209.243 73.4707H201.33V78.33H209.243V73.4707Z" fill="#92E3A9" stroke="#263238" stroke-linecap="round" stroke-linejoin="round"/>
<path d="M192.707 63.4399H173.184V90.2884H192.707V63.4399Z" fill="white" stroke="#263238" stroke-linecap="round" stroke-linejoin="round"/>
<path d="M186.905 73.4707H178.992V78.33H186.905V73.4707Z" fill="#92E3A9" stroke="#263238" stroke-linecap="round" stroke-linejoin="round"/>
<path d="M170.369 63.4399H150.846V90.2884H170.369V63.4399Z" fill="white" stroke="#263238" stroke-linecap="round" stroke-linejoin="round"/>
<path d="M164.567 73.4707H156.654V78.33H164.567V73.4707Z" fill="#92E3A9" stroke="#263238" stroke-linecap="round" stroke-linejoin="round"/>
<path d="M215.045 94.4316H195.522V121.28H215.045V94.4316Z" fill="white" stroke="#263238" stroke-linecap="round" stroke-linejoin="round"/>
<path d="M209.243 104.462H201.33V109.322H209.243V104.462Z" fill="#92E3A9" stroke="#263238" stroke-linecap="round" stroke-linejoin="round"/>
<path d="M170.369 94.4316H150.846V121.28H170.369V94.4316Z" fill="white" stroke="#263238" stroke-linecap="round" stroke-linejoin="round"/>
<path d="M164.567 104.462H156.654V109.322H164.567V104.462Z" fill="white" stroke="#263238" stroke-linecap="round" stroke-linejoin="round"/>
<path d="M191.948 95.2764H173.814V116.947H191.948V95.2764Z" fill="#263238" stroke="#263238" stroke-linecap="round" stroke-linejoin="round"/>
<path d="M190.693 97.1489H172.559V118.82H190.693V97.1489Z" fill="white" stroke="#263238" stroke-linecap="round" stroke-linejoin="round"/>
<path d="M188.184 97.1489H170.05V118.82H188.184V97.1489Z" fill="white" stroke="#263238" stroke-linecap="round" stroke-linejoin="round"/>
<path d="M185.675 97.1489H167.541V118.82H185.675V97.1489Z" fill="white" stroke="#263238" stroke-linecap="round" stroke-linejoin="round"/>
<path d="M183.165 97.1489H165.032V118.82H183.165V97.1489Z" fill="white" stroke="#263238" stroke-linecap="round" stroke-linejoin="round"/>
<path d="M180.656 97.1489H162.523V118.82H180.656V97.1489Z" fill="white" stroke="#263238" stroke-linecap="round" stroke-linejoin="round"/>
<path d="M178.147 97.1489H160.013V118.82H178.147V97.1489Z" fill="white" stroke="#263238" stroke-linecap="round" stroke-linejoin="round"/>
<path d="M191.948 98.7463H173.814V120.417H191.948V98.7463Z" fill="#263238" stroke="#263238" stroke-linecap="round" stroke-linejoin="round"/>
<path d="M176.856 94.4316H157.333V121.28H176.856V94.4316Z" fill="white" stroke="#263238" stroke-linecap="round" stroke-linejoin="round"/>
<path d="M171.054 104.462H163.141V109.322H171.054V104.462Z" fill="#92E3A9" stroke="#263238" stroke-linecap="round" stroke-linejoin="round"/>
<path d="M215.045 125.417H195.522V152.266H215.045V125.417Z" fill="white" stroke="#263238" stroke-linecap="round" stroke-linejoin="round"/>
<path d="M209.243 135.448H201.33V140.307H209.243V135.448Z" fill="#92E3A9" stroke="#263238" stroke-linecap="round" stroke-linejoin="round"/>
<path d="M192.707 125.417H173.184V152.266H192.707V125.417Z" fill="white" stroke="#263238" stroke-linecap="round" stroke-linejoin="round"/>
<path d="M186.905 135.448H178.992V140.307H186.905V135.448Z" fill="#92E3A9" stroke="#263238" stroke-linecap="round" stroke-linejoin="round"/>
<path d="M170.369 125.417H150.846V152.266H170.369V125.417Z" fill="white" stroke="#263238" stroke-linecap="round" stroke-linejoin="round"/>
<path d="M164.567 135.448H156.654V140.307H164.567V135.448Z" fill="#92E3A9" stroke="#263238" stroke-linecap="round" stroke-linejoin="round"/>
<path d="M215.045 156.403H195.522V183.251H215.045V156.403Z" fill="white" stroke="#263238" stroke-linecap="round" stroke-linejoin="round"/>
<path d="M209.243 166.434H201.33V171.293H209.243V166.434Z" fill="#92E3A9" stroke="#263238" stroke-linecap="round" stroke-linejoin="round"/>
<path d="M192.707 156.403H173.184V183.251H192.707V156.403Z" fill="white" stroke="#263238" stroke-linecap="round" stroke-linejoin="round"/>
<path d="M186.905 166.434H178.992V171.293H186.905V166.434Z" fill="#92E3A9" stroke="#263238" stroke-linecap="round" stroke-linejoin="round"/>
<path d="M170.369 156.403H150.846V183.251H170.369V156.403Z" fill="white" stroke="#263238" stroke-linecap="round" stroke-linejoin="round"/>
<path d="M164.567 166.434H156.654V171.293H164.567V166.434Z" fill="#92E3A9" stroke="#263238" stroke-linecap="round" stroke-linejoin="round"/>
<path d="M215.045 187.388H195.522V214.237H215.045V187.388Z" fill="white" stroke="#263238" stroke-linecap="round" stroke-linejoin="round"/>
<path d="M209.243 197.419H201.33V202.278H209.243V197.419Z" fill="#92E3A9" stroke="#263238" stroke-linecap="round" stroke-linejoin="round"/>
<path d="M192.707 187.388H173.184V214.237H192.707V187.388Z" fill="white" stroke="#263238" stroke-linecap="round" stroke-linejoin="round"/>
<path d="M186.905 197.419H178.992V202.278H186.905V197.419Z" fill="#92E3A9" stroke="#263238" stroke-linecap="round" stroke-linejoin="round"/>
<path d="M170.369 187.388H150.846V214.237H170.369V187.388Z" fill="white" stroke="#263238" stroke-linecap="round" stroke-linejoin="round"/>
<path d="M164.567 197.419H156.654V202.278H164.567V197.419Z" fill="#92E3A9" stroke="#263238" stroke-linecap="round" stroke-linejoin="round"/>
<path d="M215.045 218.374H195.522V245.222H215.045V218.374Z" fill="white" stroke="#263238" stroke-linecap="round" stroke-linejoin="round"/>
<path d="M209.243 228.405H201.33V233.264H209.243V228.405Z" fill="#92E3A9" stroke="#263238" stroke-linecap="round" stroke-linejoin="round"/>
<path d="M192.707 218.374H173.184V245.222H192.707V218.374Z" fill="white" stroke="#263238" stroke-linecap="round" stroke-linejoin="round"/>
<path d="M186.905 228.405H178.992V233.264H186.905V228.405Z" fill="#92E3A9" stroke="#263238" stroke-linecap="round" stroke-linejoin="round"/>
<path d="M170.369 218.374H150.846V245.222H170.369V218.374Z" fill="white" stroke="#263238" stroke-linecap="round" stroke-linejoin="round"/>
<path d="M164.567 228.405H156.654V233.264H164.567V228.405Z" fill="#92E3A9" stroke="#263238" stroke-linecap="round" stroke-linejoin="round"/>
<path d="M64.6517 152.309C64.6517 152.309 61.9711 155.369 60.4411 161.489C58.9111 167.609 65.7961 172.199 63.5011 178.698C61.2061 185.197 57.0017 188.251 58.14 194.751C59.2783 201.25 64.26 201.636 60.4289 208.9C56.5977 216.165 53.1644 218.839 54.3089 225.724C55.4533 232.609 69.9822 241.404 69.9822 241.404C69.9822 241.404 79.9272 230.314 80.3066 223.044C80.6861 215.773 71.5122 211.189 73.0422 204.684C74.5722 198.178 78.3972 192.829 78.0177 186.709C77.6383 180.589 70.3677 176.005 70.3677 171.409C70.3677 166.813 73.4277 164.145 73.4277 158.79C73.4277 153.435 66.5427 148.845 66.5427 145.791C66.5427 142.737 68.0727 138.906 68.0727 138.906C68.0727 138.906 60.8267 143.514 64.6517 152.309Z" fill="#92E3A9"/>
<path opacity="0.5" d="M64.6517 152.309C64.6517 152.309 61.9711 155.369 60.4411 161.489C58.9111 167.609 65.7961 172.199 63.5011 178.698C61.2061 185.197 57.0017 188.251 58.14 194.751C59.2783 201.25 64.26 201.636 60.4289 208.9C56.5977 216.165 53.1644 218.839 54.3089 225.724C55.4533 232.609 69.9822 241.404 69.9822 241.404C69.9822 241.404 79.9272 230.314 80.3066 223.044C80.6861 215.773 71.5122 211.189 73.0422 204.684C74.5722 198.178 78.3972 192.829 78.0177 186.709C77.6383 180.589 70.3677 176.005 70.3677 171.409C70.3677 166.813 73.4277 164.145 73.4277 158.79C73.4277 153.435 66.5427 148.845 66.5427 145.791C66.5427 142.737 68.0727 138.906 68.0727 138.906C68.0727 138.906 60.8267 143.514 64.6517 152.309Z" fill="white"/>
<path d="M68.4767 239.108L67.7117 156.513" stroke="#263238" stroke-linecap="round" stroke-linejoin="round"/>
<path d="M76.1878 220.204L68.697 227.695L60.2024 220.204" stroke="#263238" stroke-linecap="round" stroke-linejoin="round"/>
<path d="M73.6909 187.235L68.1951 195.724L63.4521 187.982" stroke="#263238" stroke-linecap="round" stroke-linejoin="round"/>
<path d="M64.7007 162.26L67.9443 166.256L70.6922 161.507" stroke="#263238" stroke-linecap="round" stroke-linejoin="round"/>
<path d="M78.0361 239.109H58.9172V260.523H78.0361V239.109Z" fill="#263238"/>
<path d="M111.182 178.704L98.5442 178.882C98.5442 178.882 100.325 194.01 98.8992 201.844C97.4732 209.677 93.74 215.724 93.74 221.428C93.74 225.173 91.5919 238.025 91.0656 245.743C91.0656 245.743 88.6176 247.646 88.0851 248.533C87.5527 249.421 88.0851 250.492 89.5111 251.563C90.9902 252.518 92.1646 253.877 92.8954 255.48C93.7828 257.438 95.0313 259.568 96.6286 260.106C98.532 260.718 97.3386 258.637 97.0448 257.726C96.2837 255.468 95.9274 253.094 95.9922 250.712C96.3532 242.432 97.5038 233.649 100.68 225.7C103.856 217.75 111.721 187.095 111.182 178.704Z" fill="white" stroke="#263238" stroke-linecap="round" stroke-linejoin="round"/>
<path d="M93.532 254.965L96.6042 253.007L97.1367 256.03L94.603 258.521L93.532 254.965Z" fill="#263238" stroke="#263238" stroke-linecap="round" stroke-linejoin="round"/>
<path d="M88.9786 252.144C88.9786 252.144 90.4474 252.964 90.631 255.528C90.8146 258.093 90.8146 259.929 92.0998 260.479C93.385 261.03 96.8612 260.847 96.8612 260.847C96.8612 260.847 93.8746 257.909 92.8954 255.528C91.9162 253.148 90.6249 250.749 88.9786 252.144Z" fill="white" stroke="#263238" stroke-linecap="round" stroke-linejoin="round"/>
<path d="M87.8709 248.674C87.8709 248.674 88.6849 248.239 90.5637 250.118C92.4426 251.997 94.2663 256.324 95.0803 257.891C95.8942 259.457 97.5895 260.149 97.9016 260.026C98.2137 259.904 99.1562 260.4 98.8441 260.773C98.532 261.146 97.3998 261.214 96.5246 260.963C95.6494 260.712 93.7033 258.955 93.0729 257.701C92.4426 256.446 91.3838 253.815 90.3801 252.939C89.6116 252.218 88.6885 251.683 87.6812 251.373C86.904 251.183 85.9921 249.806 87.8709 248.674Z" fill="#263238" stroke="#263238" stroke-linecap="round" stroke-linejoin="round"/>
<path d="M86.9039 250.81L85.9003 257.266L86.8427 257.517L88.7216 251.746C88.7216 251.746 88.7399 250.743 86.9039 250.81Z" fill="#263238" stroke="#263238" stroke-linecap="round" stroke-linejoin="round"/>
<path d="M118.287 85.3801C118.696 86.4728 118.958 87.615 119.065 88.7767C119.156 90.4291 119.836 92.0754 120.423 92.6568C121.011 93.2382 122.553 93.532 122.259 94.3092C121.965 95.0865 120.319 95.8637 120.319 95.8637C120.319 95.8637 120.221 100.031 119.707 101.2C119.535 101.697 119.224 102.135 118.811 102.46C118.397 102.786 117.899 102.986 117.375 103.036C116.164 102.893 114.963 102.666 113.783 102.357C113.783 102.357 113.104 107.694 112.914 109.248C112.79 110.343 112.724 111.445 112.718 112.547L107.1 108.936C107.1 108.936 108.85 103.501 108.85 101.757C108.85 100.013 108.459 99.8172 108.459 99.8172C108.459 99.8172 105.741 98.1648 104.579 95.5332C103.416 92.9016 107.492 89.6152 108.654 90.5821C109.602 91.4488 110.478 92.3902 111.274 93.3973L118.287 85.3801Z" fill="white" stroke="#263238" stroke-linecap="round" stroke-linejoin="round"/>
<path d="M104.217 83.3421C104.217 83.3421 100.723 79.7497 97.1305 78.489C93.5381 77.2283 86.9407 81.8856 84.2234 88.4891C81.5062 95.0925 85.4842 101.298 87.5221 103.918C89.5601 106.537 91.8061 109.836 90.5332 111.262L89.2724 112.718C89.9499 112.833 90.6456 112.768 91.2901 112.53C91.9345 112.291 92.505 111.888 92.9444 111.36C94.4989 109.524 96.439 104.756 94.4989 98.5503C92.5589 92.3447 90.5209 84.4743 93.434 82.3446C96.3472 80.2148 101.096 81.0777 102.357 82.8281L103.618 84.5723L104.217 83.3421Z" fill="#263238" stroke="#263238" stroke-linecap="round" stroke-linejoin="round"/>
<path d="M108.875 100.809C105.297 99.2706 102.257 96.7037 100.142 93.434C96.647 87.9994 104.799 82.3751 109.26 80.1413C113.722 77.9075 117.896 77.6199 119.664 80.9186C121.433 84.2172 116.849 89.358 114.517 91.396C112.186 93.434 111.513 96.0533 110.35 96.0533C109.187 96.0533 109.958 93.2381 107.632 93.6053C105.307 93.9725 106.561 97.0998 107.241 98.0668C107.476 98.366 107.769 98.6149 108.102 98.7989C108.435 98.9828 108.802 99.0981 109.181 99.1378L108.875 100.809Z" fill="#263238" stroke="#263238" stroke-linecap="round" stroke-linejoin="round"/>
<path d="M116.28 79.8416C116.28 79.8416 117.284 85.576 112.7 89.45C108.116 93.3239 103.091 93.3239 102.945 95.1844" stroke="white" stroke-width="0.75" stroke-linecap="round" stroke-linejoin="round"/>
<path d="M101.788 94.6153C101.788 94.6153 101.647 91.5981 105.086 89.1623C108.526 86.7266 114.407 84.7192 114.407 80.5576" stroke="white" stroke-width="0.75" stroke-linecap="round" stroke-linejoin="round"/>
<path d="M92.0386 81.8489C92.0386 81.8489 86.7326 86.5796 87.877 92.3202C89.0215 98.0608 94.4744 103.789 93.7583 107.229C93.0423 110.668 91.1757 111.243 91.1757 111.243" stroke="white" stroke-width="0.75" stroke-linecap="round" stroke-linejoin="round"/>
<path d="M90.7474 82.8525C90.7474 82.8525 85.8514 85.8636 85.3006 91.7449C84.7498 97.6262 86.0227 101.745 87.5221 103.918" stroke="white" stroke-width="0.75" stroke-linecap="round" stroke-linejoin="round"/>
<path d="M159.64 103.844C159.64 103.844 161.813 105.295 161.244 105.76C160.408 106.474 159.527 107.132 158.606 107.73C158.141 107.932 156.892 107.418 157.051 106.745C157.211 106.072 159.64 103.844 159.64 103.844Z" fill="white" stroke="#263238" stroke-linecap="round" stroke-linejoin="round"/>
<path d="M115.417 115.129L131.329 124.346L153 110.343C153 110.343 155.277 105.796 155.754 105.319C156.231 104.842 158.869 103.165 160.185 102.088C161.501 101.01 162.1 99.9334 162.1 100.527C162.1 101.121 160.424 103.758 159.946 104.242C159.469 104.725 157.908 106.396 157.908 106.751C157.908 107.106 161.14 105.674 161.501 105.527C161.862 105.38 162.572 105.099 161.978 105.937C161.384 106.776 159.622 107.363 158.661 108.318C157.7 109.272 156.476 110.552 155.038 111.151C153.6 111.751 137.443 125.754 135.766 127.785C135.088 128.61 134.251 129.289 133.305 129.784C132.358 130.278 131.322 130.576 130.258 130.662C128.942 130.662 119.854 126.947 119.854 126.947L115.417 115.129Z" fill="white" stroke="#263238" stroke-linecap="round" stroke-linejoin="round"/>
<path d="M139.426 119.114L131.335 124.346L115.423 115.129L119.848 126.978C119.848 126.978 128.948 130.693 130.252 130.693C131.316 130.607 132.352 130.308 133.298 129.814C134.245 129.32 135.082 128.641 135.76 127.816C136.372 127.082 138.82 124.799 141.849 122.143L139.426 119.114Z" fill="#263238" stroke="#263238" stroke-linecap="round" stroke-linejoin="round"/>
<path d="M117.333 130.209L138.037 120.876L142.461 131.409L119.842 140.503L117.333 130.209Z" fill="#92E3A9" stroke="#263238" stroke-linecap="round" stroke-linejoin="round"/>
<path d="M116.684 115.319C116.684 115.319 111.855 108.636 109.009 107.639C106.164 106.641 102.467 110.484 101.476 116.311C100.484 122.137 106.451 139.909 106.592 140.479C106.733 141.048 116.996 143.037 116.996 143.037C116.996 143.037 122.394 128.398 122.112 124.273C121.831 120.148 116.684 115.319 116.684 115.319Z" fill="#263238" stroke="#263238" stroke-linecap="round" stroke-linejoin="round"/>
<path d="M103.465 252.756C103.465 252.756 102.498 252.591 102.498 253.197V260.357H103.251L104.077 255.896C104.077 255.896 104.756 255.896 106.262 257.254C107.767 258.613 108.489 259.831 109.468 260.51C110.448 261.189 114.181 261.122 114.781 261.122C115.38 261.122 115.65 260.259 115.025 260.161C114.401 260.063 110.937 258.105 110.185 257.505C109.432 256.905 106.641 253.221 105.735 252.756C104.83 252.291 103.465 252.756 103.465 252.756Z" fill="#263238" stroke="#263238" stroke-linecap="round" stroke-linejoin="round"/>
<path d="M102.137 179.426C102.137 179.426 104.793 197.058 102.706 204.451C100.619 211.844 98.9176 215.632 99.4868 220.938C100.056 226.244 104.793 242.358 104.793 246.336C104.793 250.314 102.749 250.773 103.465 252.78C103.954 254.139 107.632 256.006 108.973 257.517C110.313 259.029 111.819 260.363 112.577 260.363C113.336 260.363 115.025 261.122 115.025 260.173C115.025 259.225 113.514 259.414 112.945 258.086C112.375 256.758 108.887 250.363 108.82 248.294C108.71 245.045 108.012 221.336 108.961 214.512C109.909 207.688 112.186 194.23 113.134 190.821C114.083 187.413 114.646 180.014 114.646 180.014L102.137 179.426Z" fill="white" stroke="#263238" stroke-linecap="round" stroke-linejoin="round"/>
<path d="M106.592 140.479C106.592 140.479 97.0203 150.271 96.0717 158.533C95.4597 163.881 97.9077 187.909 97.9077 187.909H117.669C117.669 187.909 118.379 158.367 117.669 152.963C117.239 149.663 117.002 146.34 116.959 143.012L106.592 140.479Z" fill="#92E3A9" stroke="#263238" stroke-linecap="round" stroke-linejoin="round"/>
<path d="M109.432 258.044L111.537 254.953L113.049 257.138L111.537 260.198C111.537 260.198 110.484 260.155 109.432 258.044Z" fill="#263238" stroke="#263238" stroke-linecap="round" stroke-linejoin="round"/>
<path d="M108.716 112.498C108.716 112.498 105.962 112.02 104.046 115.613C102.131 119.205 109.193 145.889 109.309 146.966C109.426 148.043 131.574 137.033 131.953 137.033C132.333 137.033 136.617 136.672 137.933 135.717C138.862 135.018 139.743 134.258 140.57 133.44C140.57 133.44 143.441 131.647 142.48 131.409C141.519 131.17 135.54 132.363 135.54 132.363C135.54 132.363 137.816 130.454 137.816 129.97C137.816 129.487 137.578 129.016 136.739 129.493C135.901 129.97 132.908 132.125 132.308 133.202C131.992 133.724 131.751 134.289 131.592 134.879C131.592 134.879 118.428 138.232 116.629 138.587C114.83 138.942 113.759 139.199 113.759 139.199L111.586 118.116" fill="#263238"/>
<path d="M108.716 112.498C108.716 112.498 105.962 112.02 104.046 115.613C102.131 119.205 109.193 145.889 109.309 146.966C109.426 148.043 131.574 137.033 131.953 137.033C132.333 137.033 136.617 136.672 137.933 135.717C138.862 135.018 139.743 134.258 140.57 133.44C140.57 133.44 143.441 131.647 142.48 131.409C141.519 131.17 135.54 132.363 135.54 132.363C135.54 132.363 137.816 130.454 137.816 129.97C137.816 129.487 137.578 129.016 136.739 129.493C135.901 129.97 132.908 132.125 132.308 133.202C131.992 133.724 131.751 134.289 131.592 134.879C131.592 134.879 118.428 138.232 116.629 138.587C114.83 138.942 113.759 139.199 113.759 139.199L111.586 118.116" stroke="#263238" stroke-linecap="round" stroke-linejoin="round"/>
<path d="M113.74 139.187L112.253 119.707" stroke="white" stroke-width="0.75" stroke-linecap="round" stroke-linejoin="round"/>
<path d="M107.1 113.25C107.1 113.25 104.377 114.401 104.089 119.279C103.801 124.156 107.528 139.781 107.528 139.781" stroke="white" stroke-width="0.75" stroke-linecap="round" stroke-linejoin="round"/>
<path d="M117.504 138.385C117.651 139.432 117.994 141.849 118.208 143.477C124.45 140.601 131.709 137.033 131.917 137.033C132.272 137.033 136.58 136.672 137.896 135.717C138.825 135.018 139.706 134.257 140.534 133.44C140.534 133.44 143.404 131.647 142.443 131.409C141.482 131.17 135.503 132.363 135.503 132.363C135.503 132.363 137.78 130.454 137.78 129.97C137.78 129.487 137.541 129.016 136.702 129.493C135.864 129.97 132.871 132.125 132.272 133.202C131.955 133.724 131.714 134.289 131.556 134.879C131.556 134.879 121.017 137.565 117.504 138.385Z" fill="white" stroke="#263238" stroke-linecap="round" stroke-linejoin="round"/>
<path d="M97.8466 161.519C97.8466 161.519 102.063 170.265 103.624 173.074" stroke="#263238" stroke-width="0.75" stroke-linecap="round" stroke-linejoin="round"/>
<path d="M280.62 260.816H43.4398V263.178H280.62V260.816Z" fill="#263238" stroke="#263238" stroke-linecap="round" stroke-linejoin="round"/>
</svg>
